<svg width="24" height="24" viewBox="0 0 24 24" fill="none" xmlns="http://www.w3.org/2000/svg">
<path fill-rule="evenodd" clip-rule="evenodd" d="M6.78606 19.5L17.2171 19.4948C17.4256 19.4946 17.6318 19.4508 17.8224 19.3662C18.013 19.2815 18.1837 19.1579 18.3236 19.0032C18.4635 18.8485 18.5695 18.6663 18.6347 18.4682C18.6998 18.2701 18.7228 18.0605 18.7021 17.853L18.7013 17.8463C18.2971 14.1105 15.4291 11.25 12.0001 11.25C8.57181 11.25 5.70381 14.1097 5.29281 17.844L5.29206 17.8522C5.2713 18.0608 5.2945 18.2714 5.36016 18.4704C5.42582 18.6695 5.53248 18.8525 5.67326 19.0078C5.81404 19.1631 5.98581 19.2871 6.17748 19.3719C6.36915 19.4566 6.57647 19.5003 6.78606 19.5ZM3.78456 17.9985L3.80181 17.6798C4.08906 15.0735 5.38356 12.8407 7.22406 11.415C6.82529 11.3054 6.41361 11.2499 6.00006 11.25C3.41331 11.25 1.21956 13.4107 0.80856 16.2952L0.80781 16.3027C0.779579 16.5146 0.796986 16.7301 0.858865 16.9347C0.920744 17.1394 1.02566 17.3284 1.16658 17.4891C1.30751 17.6498 1.48117 17.7786 1.67593 17.8667C1.87069 17.9548 2.08204 18.0003 2.29581 18L3.78456 17.9985ZM16.7776 11.4165C18.6173 12.843 19.9103 15.0773 20.1931 17.6842L20.2096 17.9948L21.7133 17.9932C21.9258 17.9929 22.1357 17.9471 22.3291 17.8591C22.5224 17.7711 22.6948 17.6429 22.8347 17.4829C22.9745 17.323 23.0786 17.135 23.14 16.9317C23.2015 16.7283 23.2188 16.5141 23.1908 16.3035L23.1901 16.299C22.7873 13.4115 20.5936 11.25 18.0053 11.25C17.5838 11.25 17.1721 11.3078 16.7776 11.4165ZM6.00006 6C5.41338 6.01515 4.85582 6.25885 4.44623 6.67916C4.03664 7.09946 3.80741 7.66313 3.80741 8.25C3.80741 8.83687 4.03664 9.40054 4.44623 9.82084C4.85582 10.2411 5.41338 10.4849 6.00006 10.5C6.58674 10.4849 7.1443 10.2411 7.55389 9.82084C7.96348 9.40054 8.19271 8.83687 8.19271 8.25C8.19271 7.66313 7.96348 7.09946 7.55389 6.67916C7.1443 6.25885 6.58674 6.01515 6.00006 6ZM18.0053 6C16.7641 6 15.7553 7.008 15.7553 8.25C15.7553 9.492 16.7641 10.5 18.0053 10.5C18.592 10.4849 19.1495 10.2411 19.5591 9.82084C19.9687 9.40054 20.198 8.83687 20.198 8.25C20.198 7.66313 19.9687 7.09946 19.5591 6.67916C19.1495 6.25885 18.592 6.01515 18.0053 6ZM12.0001 4.5C10.3441 4.5 9.00006 5.844 9.00006 7.5C9.00006 9.156 10.3441 10.5 12.0001 10.5C13.6561 10.5 15.0001 9.156 15.0001 7.5C15.0001 5.844 13.6561 4.5 12.0001 4.5Z" fill="#118FCE"/>
</svg>