<svg width="24" height="24" viewBox="0 0 24 24" fill="none" xmlns="http://www.w3.org/2000/svg">
<g id="Frame" clip-path="url(#clip0_2749_40936)">
<g id="Group">
<path id="Vector" d="M20.9876 6.72816C20.9876 5.73909 21.9268 4.5765 22.2879 4.21284C22.5625 3.93825 22.5625 3.49308 22.2879 3.21848L19.2754 0.205969C19.022 -0.0474844 18.6184 -0.06975 18.3387 0.154359L17.9004 0.505359C16.2837 1.79836 13.9611 1.66959 12.4977 0.206016C12.3657 0.0741 12.1867 -2.11203e-06 12.0001 1.17907e-09C11.9078 -5.3474e-06 11.8163 0.0181863 11.731 0.0535355C11.6457 0.0888846 11.5682 0.140698 11.5029 0.206016C10.0395 1.66969 7.71682 1.79836 6.10061 0.505687C5.83179 0.290391 5.66102 0.153937 5.66102 0.153937C5.38118 -0.0697031 4.978 -0.04725 4.72483 0.206016L1.71232 3.21844C1.43843 3.49233 1.43852 3.93703 1.71143 4.21191C2.07335 4.57641 3.01258 5.73905 3.01258 6.72811C3.01258 8.47552 2.67119 9.32902 2.30979 10.2326C1.91477 11.2201 1.50635 12.2412 1.50635 14.2594C1.50635 18.4275 5.01625 20.0153 7.83649 21.2911C9.41463 22.005 10.9052 22.6793 11.3712 23.6113C11.4296 23.7281 11.5194 23.8263 11.6304 23.895C11.7415 23.9636 11.8695 24 12.0001 24C12.1307 24 12.2587 23.9636 12.3697 23.895C12.4808 23.8263 12.5706 23.7281 12.629 23.6113C13.095 22.6793 14.5856 22.005 16.1637 21.2911C18.9839 20.0153 22.4938 18.4275 22.4938 14.2594C22.4938 12.2412 22.0854 11.2201 21.6904 10.2326C21.329 9.32902 20.9876 8.47556 20.9876 6.72816ZM17.5048 10.1213L15.2628 12.3069L15.7918 15.393C15.814 15.5223 15.7996 15.6552 15.7501 15.7768C15.7007 15.8983 15.6182 16.0036 15.5121 16.0807C15.406 16.1578 15.2804 16.2037 15.1495 16.2131C15.0187 16.2226 14.8878 16.1952 14.7716 16.1342L12.0001 14.6772L9.22854 16.1342C9.21949 16.139 8.85274 16.3456 8.48805 16.0806C8.38192 16.0035 8.29947 15.8982 8.25004 15.7767C8.20062 15.6551 8.18617 15.5222 8.20835 15.3929L8.73785 12.3068L6.49577 10.1213C6.40183 10.0298 6.33538 9.91374 6.30394 9.78637C6.27249 9.659 6.27731 9.52538 6.31785 9.4006C6.35838 9.27583 6.43302 9.16489 6.53332 9.08032C6.63361 8.99575 6.75557 8.94092 6.8854 8.92205L9.98397 8.47177L11.3696 5.66391C11.4276 5.54624 11.5175 5.44716 11.6289 5.37788C11.7403 5.30861 11.8689 5.27189 12.0001 5.27188C12.1313 5.27188 12.2599 5.30859 12.3713 5.37786C12.4828 5.44713 12.5726 5.5462 12.6306 5.66386L14.0165 8.47181L17.1152 8.92209C17.245 8.94094 17.367 8.99574 17.4673 9.0803C17.5676 9.16486 17.6423 9.2758 17.6828 9.40058C17.7234 9.52536 17.7282 9.659 17.6967 9.78637C17.6653 9.91375 17.5988 10.0298 17.5048 10.1213Z" fill="#DC2626"/>
<path id="Vector_2" d="M12.9192 9.42555L12.0002 7.56372L11.0815 9.42546C11.031 9.52769 10.9565 9.61613 10.8643 9.68314C10.772 9.75016 10.6649 9.79375 10.5521 9.81016L8.49756 10.1088L9.98415 11.5578C10.0658 11.6374 10.1269 11.7357 10.1621 11.8441C10.1973 11.9525 10.2057 12.0679 10.1864 12.1803L9.83532 14.2264L11.673 13.2604C11.7739 13.2074 11.8861 13.1796 12.0001 13.1796C12.1141 13.1796 12.2264 13.2074 12.3273 13.2604L14.1651 14.2265L13.8143 12.1802C13.7951 12.0678 13.8034 11.9525 13.8386 11.8441C13.8738 11.7356 13.9349 11.6374 14.0165 11.5578L15.5031 10.1088L13.4485 9.81016C13.3357 9.79374 13.2286 9.75016 13.1364 9.68316C13.0442 9.61616 12.9697 9.52775 12.9192 9.42555Z" fill="#DC2626"/>
</g>
</g>
<defs>
<clipPath id="clip0_2749_40936">
<rect width="24" height="24" fill="white"/>
</clipPath>
</defs>
</svg>
