<svg width="24" height="24" viewBox="0 0 24 24" fill="none" xmlns="http://www.w3.org/2000/svg">
<g id="Frame">
<g id="Group">
<path id="Vector" d="M22.0958 6.222C22.3585 6.59639 22.4997 7.0426 22.5 7.5V19.5C22.5 20.7375 21.4875 21.75 20.25 21.75H3.75C2.5125 21.75 1.5 20.7375 1.5 19.5V7.5C1.5 7.02525 1.65075 6.58575 1.90425 6.222L4.93125 10.998C5.13651 11.3064 5.41482 11.5592 5.74143 11.7341C6.06804 11.9089 6.4328 12.0002 6.80325 12H9.13875C9.29294 12.4374 9.5787 12.8164 9.95684 13.085C10.335 13.3535 10.787 13.4985 11.2508 13.5H12.7507C13.2145 13.4985 13.6665 13.3535 14.0447 13.085C14.4228 12.8164 14.7086 12.4374 14.8627 12H17.1982C17.952 12 18.6518 11.625 19.08 10.9838L22.0972 6.22275L22.0958 6.222ZM11.25 10.5C10.8368 10.5 10.5 10.8368 10.5 11.25C10.5 11.6632 10.8368 12 11.25 12H12.75C13.1632 12 13.5 11.6632 13.5 11.25C13.5 10.8368 13.1632 10.5 12.75 10.5H11.25ZM3.12675 5.34975C3.32625 5.29125 3.5325 5.25 3.75 5.25H7.5V4.5C7.5 3.2625 8.5125 2.25 9.75 2.25H14.25C15.4875 2.25 16.5 3.2625 16.5 4.5V5.25H20.25C20.4675 5.25 20.6737 5.29125 20.8732 5.34975L17.8215 10.1663C17.7531 10.269 17.6603 10.3533 17.5514 10.4115C17.4426 10.4698 17.321 10.5002 17.1975 10.5H14.862C14.7078 10.0626 14.422 9.68358 14.0439 9.41502C13.6658 9.14646 13.2138 9.00149 12.75 9H11.25C10.7862 9.00149 10.3342 9.14646 9.95609 9.41502C9.57795 9.68358 9.29219 10.0626 9.138 10.5H6.8025C6.68186 10.5007 6.56288 10.4719 6.45585 10.4162C6.34883 10.3606 6.25698 10.2796 6.18825 10.1805L3.12675 5.34975ZM9 5.25H15V4.5C15 4.0875 14.6625 3.75 14.25 3.75H9.75C9.3375 3.75 9 4.0875 9 4.5V5.25Z" fill="#F17400"/>
</g>
</g>
</svg>
