<svg width="24" height="24" viewBox="0 0 24 24" fill="none" xmlns="http://www.w3.org/2000/svg">
<g id="Frame">
<g id="Group">
<path id="Vector" d="M7.9874 1.5C7.5749 1.5 7.2374 1.8375 7.2374 2.25V2.9325H6.0674C3.9449 2.9325 2.2124 4.6575 2.2124 6.78V18.6525C2.2124 20.775 3.9449 22.5 6.0674 22.5H17.9324C20.0549 22.5 21.7874 20.775 21.7874 18.6525V6.78C21.7874 4.6575 20.0549 2.9325 17.9324 2.9325H16.7624V2.25C16.7624 1.8375 16.4249 1.5 16.0124 1.5C15.5924 1.5 15.2624 1.8375 15.2624 2.25V2.9325H8.7374V2.25C8.7374 1.8375 8.4074 1.5 7.9874 1.5ZM9.2324 9.6525C9.30327 9.64384 9.37077 9.61726 9.42851 9.57527C9.48625 9.53327 9.53233 9.47725 9.5624 9.4125L10.2599 7.995C10.5899 7.3275 11.2574 6.915 11.9999 6.915C12.7424 6.915 13.4099 7.3275 13.7399 7.995L14.4374 9.4125C14.5049 9.5475 14.6249 9.6375 14.7674 9.6525L16.3349 9.885C17.0774 9.99 17.6774 10.4925 17.9024 11.205C18.1349 11.91 17.9474 12.675 17.4149 13.1925L16.2824 14.295C16.2301 14.3441 16.1911 14.4056 16.1688 14.4737C16.1465 14.5419 16.1417 14.6145 16.1549 14.685L16.4174 16.245C16.5449 16.98 16.2524 17.7075 15.6524 18.1425C15.3074 18.39 14.9099 18.5175 14.5124 18.5175C14.2049 18.5175 13.8899 18.4425 13.6049 18.2925L12.2024 17.5575C12.1401 17.5243 12.0705 17.5069 11.9999 17.5069C11.9293 17.5069 11.8597 17.5243 11.7974 17.5575L10.3949 18.2925C9.7349 18.6375 8.9549 18.5775 8.3474 18.1425C8.05398 17.9305 7.82647 17.6399 7.69111 17.3041C7.55576 16.9684 7.51807 16.6012 7.5824 16.245L7.8449 14.685C7.85806 14.6145 7.85328 14.5419 7.831 14.4737C7.80872 14.4056 7.76966 14.3441 7.7174 14.295L6.5849 13.1925C6.3245 12.9409 6.14055 12.6208 6.05429 12.2691C5.96803 11.9174 5.98298 11.5485 6.0974 11.205C6.3224 10.4925 6.9224 9.99 7.6649 9.885L9.2324 9.6525Z" fill="#0B31B4"/>
<path id="Vector_2" d="M7.52246 11.67C7.49996 11.745 7.45496 11.9475 7.63496 12.12L8.76746 13.2225C9.22496 13.665 9.43496 14.31 9.32246 14.94L9.05996 16.5C9.01496 16.74 9.16496 16.8825 9.23246 16.9275C9.29996 16.98 9.47996 17.0775 9.69746 16.965L11.1 16.23C11.3768 16.0817 11.6859 16.0041 12 16.0041C12.314 16.0041 12.6232 16.0817 12.9 16.23L14.3025 16.965C14.52 17.0775 14.7 16.98 14.7675 16.9275C14.835 16.8825 14.985 16.74 14.94 16.5L14.6775 14.94C14.565 14.31 14.775 13.665 15.2325 13.2225L16.365 12.12C16.545 11.9475 16.5 11.745 16.4775 11.67C16.4554 11.5906 16.41 11.5195 16.3472 11.4661C16.2843 11.4126 16.2069 11.3791 16.125 11.37L14.5575 11.1375C14.2461 11.0934 13.9502 10.974 13.6954 10.7897C13.4405 10.6055 13.2344 10.3619 13.095 10.08L12.3975 8.65504C12.285 8.43754 12.0825 8.41504 12 8.41504C11.9175 8.41504 11.715 8.43754 11.6025 8.65504L10.905 10.08C10.7655 10.3619 10.5594 10.6055 10.3045 10.7897C10.0497 10.974 9.75381 11.0934 9.44246 11.1375L7.87496 11.37C7.63496 11.4 7.54496 11.5875 7.52246 11.67Z" fill="#0B31B4"/>
</g>
</g>
</svg>
