<svg width="24" height="24" viewBox="0 0 24 24" fill="none" xmlns="http://www.w3.org/2000/svg">
<g id="Frame" clip-path="url(#clip0_2749_40548)">
<g id="Group">
<path id="Vector" d="M19.5728 13.6695C15.8966 13.8129 12.4161 14.7688 9.31497 16.3531L5.32736 18.6557C4.27278 19.2637 2.92599 18.8988 2.32077 17.8496L0.29421 14.3405C-0.312308 13.2895 0.0492028 11.9405 1.10023 11.3339L4.40398 9.42624C4.44947 9.39997 4.4997 9.38292 4.55178 9.37606C4.60387 9.3692 4.65679 9.37266 4.70754 9.38626C4.75828 9.39985 4.80585 9.42331 4.84753 9.45529C4.88921 9.48727 4.92418 9.52715 4.95045 9.57265L7.54642 14.069C7.57318 14.1154 7.60898 14.1559 7.65169 14.1882C7.69439 14.2205 7.74314 14.2438 7.79505 14.2569C7.84696 14.27 7.90096 14.2725 7.95386 14.2644C8.00677 14.2562 8.05749 14.2375 8.10304 14.2094C8.28959 14.0944 8.34055 13.8445 8.23094 13.6547L5.61622 9.12578C5.51236 8.94588 5.56336 8.71622 5.73412 8.59787C8.46155 6.70691 10.769 4.29849 12.5411 1.48966C13.2124 0.42468 14.7767 0.453181 15.4077 1.54566L20.9573 11.1589C21.588 12.2491 20.8329 13.6205 19.5728 13.6695ZM20.2849 6.97422C20.4904 5.79829 19.8011 4.61885 18.6871 4.21514C18.337 4.08824 18.0193 4.4693 18.2055 4.79186C18.6487 5.55973 19.0935 6.33025 19.5433 7.10898C19.7312 7.43424 20.2202 7.34428 20.2849 6.97422ZM11.051 21.1282L9.15277 17.833C9.04247 17.6415 8.79751 17.5758 8.60605 17.6863C7.57727 18.2799 7.53837 18.3029 6.16608 19.095C5.97473 19.2055 5.90892 19.4503 6.01943 19.6416L7.92093 22.9348C8.16469 23.3565 8.60305 23.5858 9.04947 23.5858C9.48248 23.5858 9.64808 23.4393 10.575 22.9043C11.196 22.5458 11.4095 21.7488 11.051 21.1282ZM23.2056 3.93273C23.2975 3.87969 23.3645 3.79232 23.3919 3.68984C23.4194 3.58737 23.405 3.47819 23.352 3.38632C23.2989 3.29444 23.2116 3.22741 23.1091 3.19995C23.0066 3.1725 22.8974 3.18687 22.8056 3.23991L21.7706 3.83748C21.4164 4.04199 21.5645 4.584 21.971 4.584C22.1133 4.58395 22.0847 4.57985 23.2056 3.93273ZM19.5274 1.85992L19.7798 0.918094C19.7934 0.867353 19.7968 0.814431 19.79 0.76235C19.7831 0.710269 19.7661 0.660048 19.7398 0.614555C19.7136 0.569063 19.6786 0.529189 19.6369 0.49721C19.5952 0.465232 19.5477 0.441776 19.4969 0.42818C19.4462 0.414585 19.3933 0.411116 19.3412 0.417973C19.2891 0.424831 19.2389 0.441879 19.1934 0.468145C19.1479 0.49441 19.108 0.529379 19.076 0.571055C19.0441 0.612731 19.0206 0.660297 19.007 0.711038L18.7546 1.65287C18.6866 1.90647 18.8778 2.15653 19.1412 2.15653C19.2292 2.15642 19.3148 2.1273 19.3846 2.07368C19.4544 2.02006 19.5046 1.94494 19.5274 1.85992ZM23.9863 8.20396C23.9999 8.15322 24.0034 8.10029 23.9965 8.04821C23.9897 7.99613 23.9726 7.94591 23.9463 7.90042C23.9201 7.85493 23.8851 7.81505 23.8434 7.78307C23.8018 7.75109 23.7542 7.72764 23.7034 7.71404L22.7616 7.46169C22.6591 7.43423 22.5499 7.4486 22.458 7.50165C22.3662 7.5547 22.2991 7.64207 22.2717 7.74454C22.2442 7.84702 22.2586 7.95621 22.3116 8.04808C22.3647 8.13996 22.452 8.207 22.5545 8.23446C23.5846 8.51047 23.528 8.50057 23.6001 8.50057C23.6882 8.50047 23.7737 8.47136 23.8435 8.41774C23.9133 8.36412 23.9635 8.28898 23.9863 8.20396Z" fill="#E96C3F"/>
</g>
</g>
<defs>
<clipPath id="clip0_2749_40548">
<rect width="24" height="24" fill="white"/>
</clipPath>
</defs>
</svg>
