<svg width="24" height="24" viewBox="0 0 24 24" fill="none" xmlns="http://www.w3.org/2000/svg">
<g id="Frame">
<g id="Group">
<path id="Vector" d="M12 1.25C9.87386 1.25 7.79545 1.88048 6.02763 3.0617C4.2598 4.24293 2.88194 5.92185 2.0683 7.88615C1.25466 9.85046 1.04177 12.0119 1.45656 14.0972C1.87135 16.1825 2.89519 18.098 4.39861 19.6014C5.90202 21.1048 7.81749 22.1287 9.90278 22.5434C11.9881 22.9582 14.1495 22.7453 16.1139 21.9317C18.0782 21.1181 19.7571 19.7402 20.9383 17.9724C22.1195 16.2046 22.75 14.1262 22.75 12C22.7468 9.1499 21.6132 6.41744 19.5979 4.40211C17.5826 2.38678 14.8501 1.25318 12 1.25ZM7.28401 13.512C7.34888 13.5867 7.39833 13.6735 7.42953 13.7673C7.46073 13.8612 7.47305 13.9603 7.46578 14.059C7.45851 14.1576 7.4318 14.2538 7.38719 14.3421C7.34257 14.4304 7.28093 14.509 7.20582 14.5734C7.1307 14.6377 7.0436 14.6866 6.94952 14.7172C6.85544 14.7477 6.75625 14.7594 6.65765 14.7514C6.55905 14.7435 6.46299 14.7161 6.37501 14.6709C6.28703 14.6257 6.20886 14.5635 6.14501 14.488L4.43101 12.488C4.31435 12.3522 4.25021 12.179 4.25021 12C4.25021 11.821 4.31435 11.6478 4.43101 11.512L6.14501 9.512C6.27488 9.3625 6.45861 9.27043 6.6561 9.25588C6.8536 9.24133 7.04884 9.30548 7.19921 9.43434C7.34959 9.5632 7.4429 9.7463 7.45879 9.94369C7.47467 10.1411 7.41184 10.3368 7.28401 10.488L5.98801 12L7.28401 13.512ZM14.284 17.488L12.569 19.488C12.4987 19.5701 12.4114 19.6361 12.3132 19.6813C12.215 19.7265 12.1081 19.7499 12 19.7499C11.8919 19.7499 11.785 19.7265 11.6868 19.6813C11.5886 19.6361 11.5013 19.5701 11.431 19.488L9.71601 17.488C9.58817 17.3368 9.52534 17.1411 9.54122 16.9437C9.55711 16.7463 9.65042 16.5632 9.8008 16.4343C9.95117 16.3055 10.1464 16.2413 10.3439 16.2559C10.5414 16.2704 10.7251 16.3625 10.855 16.512L12 17.848L13.145 16.512C13.2749 16.3625 13.4586 16.2704 13.6561 16.2559C13.8536 16.2413 14.0488 16.3055 14.1992 16.4343C14.3496 16.5632 14.4429 16.7463 14.4588 16.9437C14.4747 17.1411 14.4118 17.3368 14.284 17.488ZM10 12C10 11.6044 10.1173 11.2178 10.3371 10.8889C10.5568 10.56 10.8692 10.3036 11.2346 10.1522C11.6001 10.0009 12.0022 9.96126 12.3902 10.0384C12.7781 10.1156 13.1345 10.3061 13.4142 10.5858C13.6939 10.8655 13.8844 11.2219 13.9616 11.6098C14.0387 11.9978 13.9991 12.3999 13.8478 12.7654C13.6964 13.1308 13.44 13.4432 13.1111 13.6629C12.7822 13.8827 12.3956 14 12 14C11.4696 14 10.9609 13.7893 10.5858 13.4142C10.2107 13.0391 10 12.5304 10 12ZM14.2 7.569C14.1252 7.63319 14.0385 7.68201 13.9449 7.71269C13.8513 7.74336 13.7525 7.75527 13.6542 7.74775C13.556 7.74022 13.4602 7.71341 13.3723 7.66884C13.2844 7.62428 13.2061 7.56282 13.142 7.488L12 6.152L10.855 7.488C10.7251 7.6375 10.5414 7.72957 10.3439 7.74412C10.1464 7.75867 9.95117 7.69452 9.8008 7.56566C9.65042 7.4368 9.55711 7.2537 9.54122 7.05631C9.52534 6.85891 9.58817 6.66325 9.71601 6.512L11.431 4.512C11.5036 4.43353 11.5916 4.37092 11.6895 4.3281C11.7874 4.28528 11.8931 4.26318 12 4.26318C12.1069 4.26318 12.2126 4.28528 12.3105 4.3281C12.4084 4.37092 12.4964 4.43353 12.569 4.512L14.284 6.512C14.413 6.66333 14.4766 6.85968 14.4608 7.05789C14.4451 7.2561 14.3513 7.43994 14.2 7.569ZM19.566 12.488L17.852 14.488C17.7221 14.6375 17.5384 14.7296 17.3409 14.7441C17.1434 14.7587 16.9482 14.6945 16.7978 14.5657C16.6474 14.4368 16.5541 14.2537 16.5382 14.0563C16.5223 13.8589 16.5852 13.6632 16.713 13.512L18.012 12L16.712 10.488C16.5842 10.3368 16.5213 10.1411 16.5372 9.94369C16.5531 9.7463 16.6464 9.5632 16.7968 9.43434C16.9472 9.30548 17.1424 9.24133 17.3399 9.25588C17.5374 9.27043 17.7211 9.3625 17.851 9.512L19.565 11.512C19.6822 11.6474 19.7471 11.8202 19.7478 11.9993C19.7485 12.1783 19.6851 12.3517 19.569 12.488H19.566Z" fill="#48BF80"/>
</g>
</g>
</svg>
