<svg width="24" height="24" viewBox="0 0 24 24" fill="none" xmlns="http://www.w3.org/2000/svg">
<g id="Frame">
<g id="Group">
<path id="Vector" d="M21.7848 9.99175L21.2776 9.92066C21.1396 9.90153 21.0099 9.84312 20.9041 9.75241C20.7983 9.66169 20.7208 9.54248 20.6808 9.40896C20.5037 8.81531 20.2658 8.24155 19.9708 7.69681C19.9046 7.57428 19.875 7.43535 19.8854 7.29649C19.8958 7.15762 19.9459 7.02467 20.0296 6.91341L20.3398 6.50134C20.4458 6.36029 20.4972 6.18574 20.4848 6.00978C20.4723 5.83382 20.3967 5.66828 20.2719 5.5436L18.4565 3.72821C18.3318 3.60347 18.1662 3.52799 17.9902 3.51568C17.8142 3.50336 17.6397 3.55504 17.4988 3.66119L17.089 3.96956C16.9779 4.05357 16.845 4.1039 16.7061 4.11458C16.5672 4.12525 16.4282 4.09583 16.3056 4.02979C15.7595 3.7345 15.1843 3.49641 14.5893 3.3193C14.4557 3.2792 14.3365 3.20153 14.2457 3.09556C14.155 2.98958 14.0967 2.85976 14.0776 2.72156L14.0079 2.21621C13.9836 2.04119 13.8969 1.88087 13.7636 1.76485C13.6303 1.64882 13.4596 1.58493 13.2829 1.58496H10.7172C10.3522 1.58496 10.0425 1.85439 9.99266 2.21621L9.92247 2.72111C9.90353 2.85939 9.84521 2.98931 9.75449 3.09537C9.66376 3.20143 9.54445 3.27916 9.41077 3.3193C8.81574 3.49656 8.24062 3.7348 7.69455 4.03024C7.57187 4.09622 7.43282 4.12557 7.29395 4.11481C7.15507 4.10405 7.02221 4.05364 6.91115 3.96956L6.50134 3.66119C6.36043 3.55504 6.18593 3.50336 6.00994 3.51568C5.83396 3.52799 5.66835 3.60347 5.5436 3.72821L3.72775 5.54406C3.47009 5.80172 3.44156 6.20972 3.66028 6.50134L3.97002 6.91341C4.14119 7.14073 4.16473 7.44639 4.02934 7.69681C3.7343 8.2417 3.49635 8.81561 3.3193 9.40941C3.27924 9.54284 3.20169 9.66196 3.09589 9.75259C2.99008 9.84323 2.86047 9.90156 2.72247 9.92066L2.2153 9.99175C2.04057 10.0163 1.88058 10.1031 1.76476 10.2362C1.64895 10.3694 1.5851 10.5398 1.58496 10.7163V13.2811C1.58496 13.6461 1.85394 13.9558 2.2153 14.0061L2.72247 14.0772C3.00413 14.1166 3.23779 14.3158 3.3193 14.5889C3.49657 15.1839 3.73481 15.759 4.03024 16.3051C4.09616 16.4278 4.12548 16.5668 4.11473 16.7057C4.10397 16.8446 4.05359 16.9774 3.96956 17.0885L3.66164 17.4983C3.55546 17.6393 3.50377 17.8139 3.51608 17.9899C3.5284 18.166 3.60389 18.3317 3.72866 18.4565L5.5436 20.2696C5.80172 20.5278 6.20972 20.5563 6.50134 20.3367L6.91115 20.0283C7.02227 19.9443 7.15516 19.894 7.29402 19.8834C7.43288 19.8727 7.57189 19.9021 7.69455 19.9681C8.24028 20.2631 8.81493 20.5012 9.40941 20.6785C9.68202 20.7601 9.88081 20.9937 9.92021 21.2754L9.99175 21.7844C10.0161 21.9592 10.1029 22.1194 10.236 22.2353C10.3692 22.3512 10.5397 22.4151 10.7163 22.4151H13.2838C13.6484 22.4151 13.9576 22.1462 14.0084 21.7844L14.0799 21.2754C14.099 21.1374 14.1572 21.0079 14.2478 20.9021C14.3383 20.7963 14.4574 20.7187 14.5907 20.6785C15.1852 20.501 15.7598 20.2628 16.3056 19.9676C16.4283 19.9017 16.5673 19.8724 16.7062 19.8831C16.845 19.8939 16.9779 19.9443 17.089 20.0283L17.4988 20.3367C17.6397 20.4427 17.8142 20.4943 17.9902 20.482C18.1661 20.4697 18.3317 20.3943 18.4565 20.2696L20.2715 18.4565C20.5296 18.1984 20.5581 17.7899 20.3389 17.4983L20.0305 17.089C19.9466 16.9778 19.8963 16.845 19.8856 16.7061C19.8749 16.5672 19.9043 16.4282 19.9703 16.3056C20.2658 15.7593 20.504 15.1841 20.6813 14.5889C20.7213 14.4554 20.7988 14.3362 20.9046 14.2454C21.0104 14.1547 21.14 14.0963 21.2781 14.0772L21.7848 14.0061C21.9595 13.9815 22.1195 13.8947 22.2353 13.7616C22.3512 13.6285 22.415 13.458 22.4151 13.2816V10.7167C22.4151 10.3518 22.1462 10.042 21.7848 9.99175ZM12.0001 18.2265C8.5667 18.2265 5.77364 15.4334 5.77364 12.0001C5.77364 8.5667 8.5667 5.77364 12.0001 5.77364C15.4334 5.77364 18.2265 8.5667 18.2265 12.0001C18.2265 15.4334 15.4334 18.2265 12.0001 18.2265Z" fill="#992EF9"/>
<path id="Vector_2" d="M12.0001 6.22656C8.81675 6.22656 6.22656 8.81675 6.22656 12.0001C6.22656 15.1835 8.81675 17.7737 12.0001 17.7737C15.1835 17.7737 17.7737 15.1835 17.7737 12.0001C17.7737 8.81675 15.1835 6.22656 12.0001 6.22656ZM10.4017 12.3158L9.05992 11.1737C9.03491 11.1525 9.01482 11.126 9.00104 11.0962C8.98726 11.0665 8.98013 11.034 8.98013 11.0012C8.98013 10.9684 8.98726 10.936 9.00104 10.9062C9.01482 10.8764 9.03491 10.8499 9.05992 10.8287L10.4017 9.68664C10.4241 9.66626 10.4505 9.65061 10.4791 9.64061C10.5077 9.63061 10.5381 9.62646 10.5683 9.62841C10.5986 9.63036 10.6282 9.63838 10.6553 9.65197C10.6824 9.66557 10.7065 9.68448 10.7261 9.70757C10.7458 9.73066 10.7606 9.75746 10.7697 9.78639C10.7788 9.81532 10.782 9.84579 10.7791 9.87598C10.7762 9.90617 10.7673 9.93547 10.7529 9.96214C10.7384 9.98881 10.7188 10.0123 10.6951 10.0312L9.55622 11.0012L10.6951 11.9712C10.7387 12.0107 10.7652 12.0656 10.7689 12.1243C10.7727 12.183 10.7535 12.2409 10.7154 12.2857C10.6772 12.3305 10.6232 12.3586 10.5646 12.3643C10.5061 12.3699 10.4476 12.3525 10.4017 12.3158ZM11.061 14.9155C11.0505 14.944 11.0344 14.9701 11.0136 14.9923C10.9929 15.0144 10.9678 15.0322 10.9401 15.0445C10.9123 15.0568 10.8823 15.0634 10.8519 15.0638C10.8216 15.0643 10.7914 15.0587 10.7633 15.0472C10.7351 15.0358 10.7095 15.0188 10.6881 14.9973C10.6666 14.9758 10.6497 14.9502 10.6384 14.922C10.6271 14.8938 10.6215 14.8636 10.6221 14.8333C10.6226 14.8029 10.6293 14.7729 10.6417 14.7452L12.9393 9.08483C12.9505 9.05729 12.967 9.03224 12.9879 9.01109C13.0088 8.98994 13.0337 8.97312 13.0611 8.96158C13.0885 8.95003 13.1179 8.944 13.1476 8.94382C13.1773 8.94364 13.2068 8.94932 13.2343 8.96053C13.2619 8.97173 13.2869 8.98826 13.3081 9.00915C13.3292 9.03004 13.346 9.0549 13.3576 9.08229C13.3691 9.10969 13.3752 9.13909 13.3753 9.16881C13.3755 9.19854 13.3698 9.22801 13.3586 9.25554L11.061 14.9155ZM14.9404 13.1716L13.5986 14.3137C13.5761 14.3331 13.5499 14.3479 13.5216 14.3572C13.4933 14.3665 13.4634 14.37 13.4337 14.3677C13.404 14.3653 13.3751 14.3571 13.3486 14.3435C13.3221 14.3298 13.2986 14.3111 13.2794 14.2883C13.2601 14.2656 13.2455 14.2394 13.2364 14.2111C13.2272 14.1828 13.2238 14.153 13.2262 14.1233C13.2286 14.0937 13.2368 14.0648 13.2503 14.0383C13.2639 14.0119 13.2825 13.9883 13.3052 13.9691L14.4441 12.9991L13.3052 12.0291C13.2616 11.9896 13.2351 11.9347 13.2314 11.876C13.2276 11.8173 13.2468 11.7594 13.2849 11.7146C13.3231 11.6698 13.3771 11.6416 13.4357 11.636C13.4942 11.6304 13.5527 11.6478 13.5986 11.6845L14.9404 12.8266C14.9654 12.8478 14.9855 12.8743 14.9993 12.904C15.013 12.9338 15.0202 12.9663 15.0202 12.9991C15.0202 13.0319 15.013 13.0643 14.9993 13.0941C14.9855 13.1239 14.9654 13.1504 14.9404 13.1716Z" fill="#992EF9"/>
</g>
</g>
</svg>
