<svg width="120" height="40" viewBox="0 0 120 40" fill="none" xmlns="http://www.w3.org/2000/svg">
<g clip-path="url(#clip0_2318_8825)">
<path d="M110.135 0H9.53502C9.16802 0 8.80502 0 8.44002 0.002C8.13402 0.004 7.83002 0.01 7.52102 0.015C6.85002 0.023 6.18002 0.082 5.51702 0.19C4.85575 0.302207 4.2152 0.513588 3.61702 0.817C2.71709 1.27724 1.93817 1.94292 1.34332 2.76014C0.748475 3.57737 0.354408 4.52317 0.193023 5.521C0.0817514 6.18271 0.0219057 6.85205 0.0140234 7.523C0.00402344 7.83 0.00402344 8.138 -0.000976562 8.444V31.56C0.00402344 31.87 0.00502344 32.17 0.0140234 32.481C0.0220234 33.152 0.0820234 33.821 0.194023 34.483C0.304023 35.146 0.514023 35.789 0.818023 36.388C1.12102 36.986 1.51902 37.531 1.99702 38.002C2.47002 38.479 3.01602 38.877 3.61502 39.181C4.21402 39.485 4.85502 39.698 5.51602 39.811C6.17902 39.921 6.84902 39.979 7.52002 39.988C7.83002 39.995 8.13302 39.999 8.43902 39.999C8.80502 40.001 9.16702 40.001 9.53402 40.001H110.134C110.493 40.001 110.858 40.001 111.218 39.999C111.522 39.999 111.835 39.995 112.14 39.989C112.81 39.979 113.478 39.921 114.14 39.811C114.804 39.6965 115.447 39.4842 116.048 39.181C116.647 38.8762 117.193 38.4775 117.666 38C118.142 37.5272 118.541 36.9826 118.848 36.386C119.15 35.786 119.358 35.144 119.467 34.481C119.578 33.82 119.64 33.151 119.652 32.479C119.656 32.169 119.656 31.869 119.656 31.558C119.664 31.194 119.664 30.833 119.664 30.464V9.536C119.664 9.17 119.664 8.806 119.656 8.444C119.656 8.138 119.656 7.83 119.652 7.524C119.64 6.85268 119.578 6.18317 119.467 5.521C119.358 4.85907 119.149 4.21747 118.848 3.618C118.231 2.41508 117.252 1.43588 116.049 0.818C115.448 0.5153 114.805 0.303975 114.141 0.191C113.48 0.081 112.811 0.022 112.141 0.015C111.836 0.01 111.523 0.004 111.219 0.002C110.859 0 110.494 0 110.135 0Z" fill="#A6A6A6"/>
<path d="M8.44499 39.125C8.13999 39.125 7.84299 39.121 7.54099 39.115C6.91446 39.1066 6.28942 39.0517 5.67099 38.951C5.09483 38.8516 4.53669 38.6669 4.01499 38.403C3.49787 38.1414 3.02619 37.7984 2.61799 37.387C2.20407 36.9801 1.85951 36.5082 1.59799 35.99C1.33305 35.4687 1.14959 34.9099 1.05399 34.333C0.95128 33.7131 0.895787 33.0863 0.887986 32.458C0.880986 32.248 0.872986 31.545 0.872986 31.545V8.445C0.872986 8.445 0.881986 7.753 0.887986 7.55C0.895438 6.92272 0.950598 6.29691 1.05299 5.678C1.14861 5.09953 1.33206 4.53906 1.59699 4.016C1.85699 3.498 2.19999 3.026 2.61199 2.618C3.43957 1.78636 4.50882 1.23756 5.66699 1.05C6.28699 0.95 6.91499 0.895 7.54299 0.887L8.44499 0.875H111.214L112.127 0.888C112.75 0.895167 113.371 0.949321 113.985 1.05C114.566 1.14865 115.129 1.33334 115.656 1.598C116.694 2.1326 117.539 2.97888 118.071 4.018C118.332 4.53741 118.512 5.09342 118.606 5.667C118.71 6.291 118.768 6.922 118.78 7.554C118.783 7.837 118.783 8.142 118.783 8.444C118.791 8.819 118.791 9.176 118.791 9.536V30.465C118.791 30.828 118.791 31.183 118.783 31.54C118.783 31.865 118.783 32.163 118.779 32.47C118.768 33.09 118.71 33.71 118.608 34.323C118.515 34.9041 118.333 35.4675 118.068 35.993C117.805 36.5056 117.462 36.9733 117.053 37.379C116.644 37.7926 116.172 38.1377 115.653 38.401C115.128 38.6672 114.565 38.8526 113.985 38.951C113.367 39.052 112.742 39.107 112.116 39.114C111.823 39.121 111.517 39.125 111.219 39.125L110.135 39.127L8.44499 39.125Z" fill="black"/>
<path d="M24.769 20.2995C24.7797 19.4651 25.0014 18.6469 25.4133 17.9211C25.8252 17.1953 26.4141 16.5855 27.125 16.1485C26.6735 15.5034 26.0777 14.9725 25.3851 14.5979C24.6925 14.2233 23.9221 14.0153 23.135 13.9905C21.455 13.8145 19.827 14.9955 18.971 14.9955C18.099 14.9955 16.781 14.0075 15.363 14.0375C14.4454 14.067 13.5511 14.3337 12.7672 14.8117C11.9833 15.2896 11.3366 15.9624 10.89 16.7645C8.95603 20.1135 10.398 25.0345 12.251 27.7415C13.178 29.0665 14.261 30.5465 15.679 30.4945C17.066 30.4365 17.584 29.6095 19.259 29.6095C20.917 29.6095 21.403 30.4945 22.849 30.4615C24.338 30.4365 25.275 29.1295 26.169 27.7915C26.8355 26.8474 27.3485 25.8039 27.689 24.6995C26.824 24.3339 26.0859 23.7216 25.5666 22.9391C25.0473 22.1567 24.7699 21.2386 24.769 20.2995ZM22.037 12.2095C22.8485 11.2355 23.2485 9.98361 23.152 8.71952C21.912 8.8497 20.7665 9.44242 19.944 10.3795C19.5421 10.8372 19.2343 11.3696 19.0382 11.9463C18.842 12.523 18.7615 13.1327 18.801 13.7405C19.421 13.7468 20.0343 13.6123 20.5948 13.3473C21.1553 13.0823 21.6484 12.6936 22.037 12.2105V12.2095ZM42.302 27.1395H37.57L36.433 30.4955H34.428L38.912 18.0775H40.995L45.478 30.4955H43.439L42.303 27.1395H42.302ZM38.059 25.5895H41.811L39.961 20.1435H39.91L38.06 25.5905L38.059 25.5895ZM55.16 25.9695C55.16 28.7825 53.654 30.5895 51.381 30.5895C50.8056 30.6195 50.2333 30.487 49.7297 30.207C49.226 29.9271 48.8113 29.5111 48.533 29.0065H48.49V33.4905H46.63V21.4415H48.43V22.9475H48.463C48.7541 22.4452 49.1759 22.0311 49.6836 21.7494C50.1912 21.4676 50.7657 21.3288 51.346 21.3475C53.644 21.3475 55.16 23.1635 55.16 25.9695ZM53.25 25.9695C53.25 24.1365 52.302 22.9315 50.857 22.9315C49.437 22.9315 48.482 24.1615 48.482 25.9695C48.482 27.7935 49.437 29.0155 50.857 29.0155C52.302 29.0155 53.25 27.8185 53.25 25.9695ZM65.124 25.9695C65.124 28.7825 63.619 30.5895 61.346 30.5895C60.7706 30.6195 60.1983 30.487 59.6947 30.207C59.191 29.9271 58.7763 29.5111 58.498 29.0065H58.455V33.4905H56.596V21.4415H58.395V22.9475H58.429C58.7201 22.4452 59.1419 22.0311 59.6496 21.7494C60.1572 21.4676 60.7317 21.3288 61.312 21.3475C63.61 21.3475 65.124 23.1635 65.124 25.9695ZM63.214 25.9695C63.214 24.1365 62.267 22.9315 60.822 22.9315C59.402 22.9315 58.447 24.1615 58.447 25.9695C58.447 27.7935 59.402 29.0155 60.822 29.0155C62.267 29.0155 63.214 27.8185 63.214 25.9695ZM71.71 27.0355C71.848 28.2675 73.045 29.0755 74.68 29.0755C76.246 29.0755 77.373 28.2665 77.373 27.1565C77.373 26.1925 76.693 25.6165 75.083 25.2205L73.474 24.8325C71.194 24.2825 70.135 23.2155 70.135 21.4845C70.135 19.3425 72.002 17.8705 74.654 17.8705C77.278 17.8705 79.077 19.3425 79.137 21.4845H77.261C77.149 20.2455 76.125 19.4975 74.627 19.4975C73.13 19.4975 72.106 20.2545 72.106 21.3555C72.106 22.2335 72.76 22.7505 74.361 23.1455L75.729 23.4815C78.277 24.0845 79.335 25.1075 79.335 26.9245C79.335 29.2475 77.485 30.7025 74.542 30.7025C71.788 30.7025 69.928 29.2825 69.808 27.0355H71.71ZM83.346 19.2995V21.4415H85.068V22.9135H83.346V27.9045C83.346 28.6805 83.691 29.0415 84.448 29.0415C84.652 29.0375 84.856 29.0235 85.059 28.9985V30.4615C84.719 30.5255 84.373 30.5535 84.027 30.5475C82.194 30.5475 81.479 29.8585 81.479 28.1035V22.9135H80.163V21.4415H81.479V19.2995H83.346ZM86.065 25.9695C86.065 23.1205 87.743 21.3305 90.359 21.3305C92.984 21.3305 94.654 23.1205 94.654 25.9695C94.654 28.8255 92.993 30.6075 90.359 30.6075C87.726 30.6075 86.065 28.8255 86.065 25.9695ZM92.76 25.9695C92.76 24.0155 91.865 22.8615 90.359 22.8615C88.853 22.8615 87.959 24.0235 87.959 25.9695C87.959 27.9315 88.853 29.0755 90.359 29.0755C91.865 29.0755 92.76 27.9315 92.76 25.9695ZM96.186 21.4415H97.958V22.9825H98.001C98.1212 22.5014 98.4033 22.0763 98.7999 21.7785C99.1965 21.4808 99.6835 21.3286 100.179 21.3475C100.393 21.3465 100.607 21.3695 100.816 21.4165V23.1545C100.546 23.0719 100.264 23.0341 99.981 23.0425C99.711 23.0314 99.4417 23.0789 99.1918 23.1817C98.9418 23.2845 98.7171 23.4402 98.533 23.6381C98.349 23.8361 98.21 24.0715 98.1256 24.3283C98.0412 24.585 98.0133 24.857 98.044 25.1255V30.4955H96.186V21.4415ZM109.384 27.8365C109.134 29.4795 107.534 30.6075 105.486 30.6075C102.852 30.6075 101.217 28.8435 101.217 26.0125C101.217 23.1725 102.861 21.3305 105.408 21.3305C107.913 21.3305 109.488 23.0505 109.488 25.7965V26.4335H103.093V26.5455C103.063 26.8788 103.105 27.2145 103.215 27.5305C103.325 27.8464 103.501 28.1351 103.732 28.3775C103.963 28.6197 104.242 28.8102 104.552 28.9364C104.862 29.0626 105.195 29.1216 105.529 29.1095C105.968 29.1513 106.409 29.0499 106.786 28.8205C107.163 28.591 107.455 28.2459 107.62 27.8365H109.384ZM103.102 25.1345H107.628C107.645 24.8349 107.6 24.535 107.496 24.2537C107.391 23.9724 107.229 23.7159 107.02 23.5005C106.812 23.2843 106.561 23.1136 106.284 22.9993C106.006 22.8851 105.708 22.8296 105.408 22.8365C105.105 22.8345 104.805 22.8926 104.525 23.0072C104.245 23.1219 103.99 23.291 103.776 23.5047C103.561 23.7184 103.391 23.9724 103.276 24.2522C103.16 24.5319 103.101 24.8318 103.102 25.1345ZM37.826 8.73052C38.2157 8.70257 38.6067 8.76143 38.9708 8.90287C39.3349 9.04431 39.6632 9.2648 39.9318 9.54843C40.2004 9.83207 40.4027 10.1718 40.5242 10.5431C40.6456 10.9144 40.6831 11.308 40.634 11.6955C40.634 13.6015 39.604 14.6975 37.826 14.6975H35.671V8.72952H37.826V8.73052ZM36.598 13.8535H37.723C38.0014 13.87 38.2799 13.8243 38.5383 13.7196C38.7967 13.6149 39.0286 13.454 39.217 13.2484C39.4054 13.0429 39.5456 12.7979 39.6274 12.5314C39.7093 12.2648 39.7306 11.9834 39.69 11.7075C39.7276 11.4328 39.7039 11.1531 39.6208 10.8886C39.5377 10.624 39.3971 10.3811 39.2092 10.1772C39.0212 9.97331 38.7906 9.81347 38.5336 9.70911C38.2767 9.60474 37.9999 9.55845 37.723 9.57352H36.598V13.8535ZM41.68 12.4435C41.6545 12.1491 41.6904 11.8526 41.7855 11.5728C41.8806 11.293 42.0329 11.036 42.2326 10.8182C42.4323 10.6003 42.6751 10.4264 42.9457 10.3074C43.2162 10.1884 43.5085 10.127 43.804 10.127C44.0996 10.127 44.3919 10.1884 44.6624 10.3074C44.9329 10.4264 45.1757 10.6003 45.3755 10.8182C45.5752 11.036 45.7274 11.293 45.8226 11.5728C45.9177 11.8526 45.9536 12.1491 45.928 12.4435C45.959 12.741 45.9272 13.0416 45.8346 13.3259C45.742 13.6103 45.5907 13.872 45.3905 14.0941C45.1903 14.3163 44.9457 14.4939 44.6725 14.6154C44.3993 14.737 44.1036 14.7998 43.8045 14.7998C43.5055 14.7998 43.2098 14.737 42.9366 14.6154C42.6634 14.4939 42.4187 14.3163 42.2185 14.0941C42.0183 13.872 41.8671 13.6103 41.7745 13.3259C41.6819 13.0416 41.649 12.741 41.68 12.4435ZM45.014 12.4435C45.014 11.4675 44.575 10.8975 43.806 10.8975C43.033 10.8975 42.599 11.4675 42.599 12.4435C42.599 13.4275 43.033 13.9935 43.806 13.9935C44.576 13.9935 45.014 13.4235 45.014 12.4435ZM51.573 14.6975H50.651L49.721 11.3805H49.651L48.724 14.6975H47.811L46.569 10.1945H47.471L48.277 13.6305H48.344L49.27 10.1945H50.122L51.048 13.6305H51.118L51.921 10.1945H52.81L51.573 14.6975ZM53.853 10.1945H54.709V10.9095H54.775C54.8877 10.6526 55.0778 10.4373 55.3187 10.2935C55.5596 10.1497 55.8394 10.0847 56.119 10.1075C56.3382 10.0909 56.5583 10.1238 56.763 10.2038C56.9678 10.2839 57.1518 10.409 57.3016 10.5699C57.4513 10.7308 57.5629 10.9233 57.6281 11.1333C57.6933 11.3432 57.7103 11.5651 57.678 11.7825V14.6975H56.789V12.0055C56.789 11.2815 56.475 10.9215 55.817 10.9215C55.6682 10.9141 55.5195 10.9391 55.3812 10.9948C55.243 11.0504 55.1184 11.1355 55.0162 11.2439C54.914 11.3524 54.8366 11.4818 54.7892 11.6231C54.7419 11.7644 54.7258 11.9144 54.742 12.0625V14.6975H53.853V10.1945ZM59.094 8.43652H59.982V14.6965H59.094V8.43652ZM61.218 12.4435C61.1885 12.1469 61.2214 11.8474 61.3147 11.5643C61.408 11.2812 61.5595 11.0208 61.7596 10.7998C61.9596 10.5789 62.2038 10.4023 62.4762 10.2814C62.7487 10.1605 63.0435 10.0981 63.3415 10.0981C63.6396 10.0981 63.9344 10.1605 64.2068 10.2814C64.4793 10.4023 64.7234 10.5789 64.9235 10.7998C65.1235 11.0208 65.2751 11.2812 65.3684 11.5643C65.4616 11.8474 65.4946 12.1469 65.465 12.4435C65.493 12.7393 65.459 13.0376 65.365 13.3194C65.271 13.6012 65.1192 13.8603 64.9193 14.08C64.7194 14.2998 64.4758 14.4753 64.2041 14.5954C63.9324 14.7156 63.6386 14.7776 63.3415 14.7776C63.0445 14.7776 62.7507 14.7156 62.479 14.5954C62.2073 14.4753 61.9637 14.2998 61.7638 14.08C61.5639 13.8603 61.4121 13.6012 61.3181 13.3194C61.2241 13.0376 61.19 12.7393 61.218 12.4435ZM64.551 12.4435C64.551 11.4675 64.112 10.8975 63.343 10.8975C62.57 10.8975 62.136 11.4675 62.136 12.4435C62.136 13.4275 62.57 13.9935 63.343 13.9935C64.113 13.9935 64.551 13.4235 64.551 12.4435ZM66.4 13.4235C66.4 12.6135 67.004 12.1465 68.076 12.0795L69.296 12.0095V11.6205C69.296 11.1445 68.981 10.8765 68.374 10.8765C67.878 10.8765 67.534 11.0585 67.435 11.3765H66.575C66.665 10.6035 67.393 10.1065 68.415 10.1065C69.543 10.1065 70.18 10.6695 70.18 11.6205V14.6975H69.325V14.0645H69.255C69.1123 14.2916 68.9118 14.4767 68.6741 14.6009C68.4364 14.7251 68.1699 14.784 67.902 14.7715C67.713 14.7912 67.5218 14.7711 67.341 14.7124C67.1602 14.6537 66.9937 14.5577 66.8523 14.4307C66.7109 14.3037 66.5976 14.1484 66.5199 13.9749C66.4422 13.8015 66.4007 13.6136 66.4 13.4235ZM69.295 13.0395V12.6625L68.195 12.7325C67.575 12.7745 67.295 12.9855 67.295 13.3825C67.295 13.7875 67.646 14.0225 68.129 14.0225C68.2706 14.0371 68.4137 14.023 68.5497 13.9811C68.6857 13.9391 68.8119 13.8702 68.9207 13.7785C69.0295 13.6868 69.1187 13.5741 69.183 13.4471C69.2473 13.3201 69.2854 13.1815 69.295 13.0395ZM71.348 12.4435C71.348 11.0205 72.08 10.1195 73.218 10.1195C73.4993 10.1067 73.7784 10.1742 74.0228 10.3141C74.2671 10.454 74.4666 10.6605 74.598 10.9095H74.665V8.43652H75.553V14.6965H74.702V13.9865H74.632C74.4903 14.234 74.2835 14.438 74.034 14.5764C73.7846 14.7148 73.5021 14.7822 73.217 14.7715C72.072 14.7715 71.348 13.8705 71.348 12.4435ZM72.266 12.4435C72.266 13.3985 72.716 13.9735 73.469 13.9735C74.219 13.9735 74.681 13.3905 74.681 12.4475C74.681 11.5095 74.213 10.9175 73.469 10.9175C72.721 10.9175 72.266 11.4975 72.266 12.4435ZM79.23 12.4435C79.2036 12.1487 79.2389 11.8516 79.3336 11.5711C79.4283 11.2907 79.5804 11.033 79.7802 10.8146C79.9799 10.5961 80.223 10.4217 80.4939 10.3023C80.7648 10.183 81.0575 10.1213 81.3535 10.1213C81.6495 10.1213 81.9423 10.183 82.2132 10.3023C82.4841 10.4217 82.7271 10.5961 82.9269 10.8146C83.1266 11.033 83.2787 11.2907 83.3734 11.5711C83.4682 11.8516 83.5034 12.1487 83.477 12.4435C83.508 12.741 83.4762 13.0416 83.3836 13.3259C83.291 13.6103 83.1397 13.872 82.9395 14.0941C82.7393 14.3163 82.4947 14.4939 82.2215 14.6154C81.9483 14.737 81.6526 14.7998 81.3535 14.7998C81.0545 14.7998 80.7588 14.737 80.4856 14.6154C80.2124 14.4939 79.9677 14.3163 79.7675 14.0941C79.5674 13.872 79.4161 13.6103 79.3235 13.3259C79.2309 13.0416 79.199 12.741 79.23 12.4435ZM82.563 12.4435C82.563 11.4675 82.124 10.8975 81.355 10.8975C80.582 10.8975 80.148 11.4675 80.148 12.4435C80.148 13.4275 80.583 13.9935 81.355 13.9935C82.125 13.9935 82.563 13.4235 82.563 12.4435ZM84.67 10.1945H85.525V10.9095H85.591C85.7037 10.6526 85.8938 10.4373 86.1347 10.2935C86.3756 10.1497 86.6554 10.0847 86.935 10.1075C87.1542 10.0909 87.3743 10.1238 87.579 10.2038C87.7838 10.2839 87.9678 10.409 88.1176 10.5699C88.2673 10.7308 88.3789 10.9233 88.4441 11.1333C88.5093 11.3432 88.5263 11.5651 88.494 11.7825V14.6975H87.605V12.0055C87.605 11.2815 87.291 10.9215 86.633 10.9215C86.4842 10.9141 86.3355 10.9391 86.1972 10.9948C86.059 11.0504 85.9344 11.1355 85.8322 11.2439C85.73 11.3524 85.6526 11.4818 85.6052 11.6231C85.5579 11.7644 85.5418 11.9144 85.558 12.0625V14.6975H84.669L84.67 10.1945ZM93.515 9.07352V10.2145H94.491V10.9635H93.515V13.2785C93.515 13.7505 93.71 13.9565 94.152 13.9565C94.265 13.9565 94.378 13.9495 94.491 13.9365V14.6765C94.331 14.7055 94.169 14.7205 94.007 14.7225C93.019 14.7225 92.625 14.3745 92.625 13.5065V10.9635H91.911V10.2145H92.626V9.07352H93.515ZM95.705 8.43652H96.585V10.9185H96.655C96.7731 10.6589 96.9684 10.4421 97.2144 10.2976C97.4603 10.1532 97.7448 10.0882 98.029 10.1115C98.2469 10.0995 98.4648 10.1358 98.667 10.2178C98.8693 10.2998 99.0509 10.4254 99.199 10.5857C99.3471 10.746 99.4579 10.937 99.5236 11.1451C99.5893 11.3532 99.6082 11.5733 99.579 11.7895V14.6975H98.69V12.0095C98.69 11.2895 98.355 10.9255 97.727 10.9255C97.5742 10.9126 97.4203 10.9334 97.2763 10.9863C97.1323 11.0392 97.0017 11.1231 96.8936 11.2319C96.7855 11.3408 96.7026 11.472 96.6506 11.6164C96.5987 11.7608 96.579 11.9147 96.593 12.0675V14.6975H95.705V8.43652ZM104.761 13.4815C104.641 13.8936 104.38 14.2502 104.023 14.4886C103.666 14.7269 103.237 14.8317 102.81 14.7845C102.513 14.7924 102.218 14.7356 101.946 14.618C101.673 14.5005 101.429 14.325 101.232 14.1037C101.034 13.8825 100.886 13.6208 100.8 13.3369C100.713 13.053 100.689 12.7536 100.73 12.4595C100.691 12.1647 100.715 11.8648 100.802 11.5803C100.888 11.2957 101.035 11.033 101.232 10.81C101.428 10.587 101.671 10.4089 101.942 10.2877C102.214 10.1665 102.509 10.105 102.806 10.1075C104.059 10.1075 104.815 10.9635 104.815 12.3775V12.6875H101.635V12.7375C101.621 12.9028 101.642 13.0691 101.696 13.2258C101.75 13.3826 101.836 13.5263 101.949 13.6477C102.062 13.7692 102.199 13.8657 102.351 13.9311C102.504 13.9965 102.668 14.0294 102.834 14.0275C103.047 14.0531 103.262 14.0148 103.453 13.9176C103.644 13.8204 103.802 13.6686 103.906 13.4815H104.761ZM101.635 12.0305H103.91C103.921 11.8794 103.9 11.7278 103.849 11.5852C103.798 11.4426 103.717 11.3122 103.613 11.2024C103.509 11.0926 103.382 11.0058 103.243 10.9474C103.103 10.8891 102.952 10.8605 102.801 10.8635C102.647 10.8614 102.495 10.8901 102.352 10.948C102.21 11.0059 102.08 11.0918 101.971 11.2006C101.863 11.3094 101.777 11.4389 101.719 11.5815C101.661 11.724 101.633 11.8767 101.635 12.0305Z" fill="white"/>
</g>
<defs>
<clipPath id="clip0_2318_8825">
<rect width="120" height="40" fill="white"/>
</clipPath>
</defs>
</svg>
