<svg width="135" height="40" viewBox="0 0 135 40" fill="none" xmlns="http://www.w3.org/2000/svg">
<g clip-path="url(#clip0_2318_8813)">
<path d="M130 40H5C2.2 40 0 37.8 0 35V5C0 2.2 2.2 0 5 0H130C132.8 0 135 2.2 135 5V35C135 37.7 132.8 40 130 40Z" fill="black"/>
<path d="M130 0.8C132.3 0.8 134.2 2.7 134.2 5V35C134.2 37.3 132.3 39.2 130 39.2H5C2.7 39.2 0.8 37.3 0.8 35V5C0.8 2.7 2.7 0.8 5 0.8H130ZM130 0H5C2.2 0 0 2.2 0 5V35C0 37.8 2.2 40 5 40H130C132.8 40 135 37.8 135 35V5C135 2.3 132.8 0 130 0Z" fill="#A6A6A6"/>
<path d="M47.4 10.2004C47.4 11.0004 47.2 11.7004 46.7 12.2004C46.1 12.8004 45.4 13.1004 44.5 13.1004C43.6 13.1004 42.9 12.8004 42.3 12.2004C41.7 11.6004 41.4 10.9004 41.4 10.0004C41.4 9.10039 41.7 8.40039 42.3 7.80039C42.9 7.20039 43.6 6.90039 44.5 6.90039C44.9 6.90039 45.3 7.00039 45.7 7.20039C46.1 7.40039 46.4 7.60039 46.6 7.90039L46.1 8.40039C45.7 7.90039 45.2 7.70039 44.5 7.70039C43.9 7.70039 43.3 7.90039 42.9 8.40039C42.4 8.80039 42.2 9.40039 42.2 10.1004C42.2 10.8004 42.4 11.4004 42.9 11.8004C43.4 12.2004 43.9 12.5004 44.5 12.5004C45.2 12.5004 45.7 12.3004 46.2 11.8004C46.5 11.5004 46.7 11.1004 46.7 10.6004H44.5V9.90039H47.4V10.2004ZM52 7.70039H49.3V9.60039H51.8V10.3004H49.3V12.2004H52V13.0004H48.5V7.00039H52V7.70039ZM55.3 13.0004H54.5V7.70039H52.8V7.00039H57V7.70039H55.3V13.0004ZM59.9 13.0004V7.00039H60.7V13.0004H59.9ZM64.1 13.0004H63.3V7.70039H61.6V7.00039H65.7V7.70039H64V13.0004H64.1ZM73.6 12.2004C73 12.8004 72.3 13.1004 71.4 13.1004C70.5 13.1004 69.8 12.8004 69.2 12.2004C68.6 11.6004 68.3 10.9004 68.3 10.0004C68.3 9.10039 68.6 8.40039 69.2 7.80039C69.8 7.20039 70.5 6.90039 71.4 6.90039C72.3 6.90039 73 7.20039 73.6 7.80039C74.2 8.40039 74.5 9.10039 74.5 10.0004C74.5 10.9004 74.2 11.6004 73.6 12.2004ZM69.8 11.7004C70.2 12.1004 70.8 12.4004 71.4 12.4004C72 12.4004 72.6 12.2004 73 11.7004C73.4 11.3004 73.7 10.7004 73.7 10.0004C73.7 9.30039 73.5 8.70039 73 8.30039C72.6 7.90039 72 7.60039 71.4 7.60039C70.8 7.60039 70.2 7.80039 69.8 8.30039C69.4 8.70039 69.1 9.30039 69.1 10.0004C69.1 10.7004 69.3 11.3004 69.8 11.7004ZM75.6 13.0004V7.00039H76.5L79.4 11.7004V7.00039H80.2V13.0004H79.4L76.3 8.10039V13.0004H75.6Z" fill="white" stroke="white" stroke-width="0.2" stroke-miterlimit="10"/>
<path d="M68.1 21.7996C65.7 21.7996 63.8 23.5996 63.8 26.0996C63.8 28.4996 65.7 30.3996 68.1 30.3996C70.5 30.3996 72.4 28.5996 72.4 26.0996C72.4 23.4996 70.5 21.7996 68.1 21.7996ZM68.1 28.5996C66.8 28.5996 65.7 27.4996 65.7 25.9996C65.7 24.4996 66.8 23.3996 68.1 23.3996C69.4 23.3996 70.5 24.3996 70.5 25.9996C70.5 27.4996 69.4 28.5996 68.1 28.5996ZM58.8 21.7996C56.4 21.7996 54.5 23.5996 54.5 26.0996C54.5 28.4996 56.4 30.3996 58.8 30.3996C61.2 30.3996 63.1 28.5996 63.1 26.0996C63.1 23.4996 61.2 21.7996 58.8 21.7996ZM58.8 28.5996C57.5 28.5996 56.4 27.4996 56.4 25.9996C56.4 24.4996 57.5 23.3996 58.8 23.3996C60.1 23.3996 61.2 24.3996 61.2 25.9996C61.2 27.4996 60.1 28.5996 58.8 28.5996ZM47.7 23.0996V24.8996H52C51.9 25.8996 51.5 26.6996 51 27.1996C50.4 27.7996 49.4 28.4996 47.7 28.4996C45 28.4996 43 26.3996 43 23.6996C43 20.9996 45.1 18.8996 47.7 18.8996C49.1 18.8996 50.2 19.4996 51 20.1996L52.3 18.8996C51.2 17.8996 49.8 17.0996 47.8 17.0996C44.2 17.0996 41.1 20.0996 41.1 23.6996C41.1 27.2996 44.2 30.2996 47.8 30.2996C49.8 30.2996 51.2 29.6996 52.4 28.3996C53.6 27.1996 54 25.4996 54 24.1996C54 23.7996 54 23.3996 53.9 23.0996H47.7ZM93.1 24.4996C92.7 23.4996 91.7 21.7996 89.5 21.7996C87.3 21.7996 85.5 23.4996 85.5 26.0996C85.5 28.4996 87.3 30.3996 89.7 30.3996C91.6 30.3996 92.8 29.1996 93.2 28.4996L91.8 27.4996C91.3 28.1996 90.7 28.6996 89.7 28.6996C88.7 28.6996 88.1 28.2996 87.6 27.3996L93.3 24.9996L93.1 24.4996ZM87.3 25.8996C87.3 24.2996 88.6 23.3996 89.5 23.3996C90.2 23.3996 90.9 23.7996 91.1 24.2996L87.3 25.8996ZM82.6 29.9996H84.5V17.4996H82.6V29.9996ZM79.6 22.6996C79.1 22.1996 78.3 21.6996 77.3 21.6996C75.2 21.6996 73.2 23.5996 73.2 25.9996C73.2 28.3996 75.1 30.1996 77.3 30.1996C78.3 30.1996 79.1 29.6996 79.5 29.1996H79.6V29.7996C79.6 31.3996 78.7 32.2996 77.3 32.2996C76.2 32.2996 75.4 31.4996 75.2 30.7996L73.6 31.4996C74.1 32.5996 75.3 33.9996 77.4 33.9996C79.6 33.9996 81.4 32.6996 81.4 29.5996V21.9996H79.6V22.6996ZM77.4 28.5996C76.1 28.5996 75 27.4996 75 25.9996C75 24.4996 76.1 23.3996 77.4 23.3996C78.7 23.3996 79.7 24.4996 79.7 25.9996C79.7 27.4996 78.7 28.5996 77.4 28.5996ZM101.8 17.4996H97.3V29.9996H99.2V25.2996H101.8C103.9 25.2996 105.9 23.7996 105.9 21.3996C105.9 18.9996 103.9 17.4996 101.8 17.4996ZM101.9 23.4996H99.2V19.1996H101.9C103.3 19.1996 104.1 20.3996 104.1 21.2996C104 22.3996 103.2 23.4996 101.9 23.4996ZM113.4 21.6996C112 21.6996 110.6 22.2996 110.1 23.5996L111.8 24.2996C112.2 23.5996 112.8 23.3996 113.5 23.3996C114.5 23.3996 115.4 23.9996 115.5 24.9996V25.0996C115.2 24.8996 114.4 24.5996 113.6 24.5996C111.8 24.5996 110 25.5996 110 27.3996C110 29.0996 111.5 30.1996 113.1 30.1996C114.4 30.1996 115 29.5996 115.5 28.9996H115.6V29.9996H117.4V25.1996C117.2 22.9996 115.5 21.6996 113.4 21.6996ZM113.2 28.5996C112.6 28.5996 111.7 28.2996 111.7 27.4996C111.7 26.4996 112.8 26.1996 113.7 26.1996C114.5 26.1996 114.9 26.3996 115.4 26.5996C115.2 27.7996 114.2 28.5996 113.2 28.5996ZM123.7 21.9996L121.6 27.3996H121.5L119.3 21.9996H117.3L120.6 29.5996L118.7 33.7996H120.6L125.7 21.9996H123.7ZM106.9 29.9996H108.8V17.4996H106.9V29.9996Z" fill="white"/>
<path d="M10.4 7.5C10.1 7.8 9.90002 8.3 9.90002 8.9V31C9.90002 31.6 10.1 32.1 10.4 32.4L10.5 32.5L22.9 20.1V19.9L10.4 7.5Z" fill="url(#paint0_linear_2318_8813)"/>
<path d="M27 24.2998L22.9 20.1998V19.8998L27 15.7998L27.1 15.8998L32 18.6998C33.4 19.4998 33.4 20.7998 32 21.5998L27 24.2998Z" fill="url(#paint1_linear_2318_8813)"/>
<path d="M27.1 24.2L22.9 20L10.4 32.5C10.9 33 11.6 33 12.5 32.6L27.1 24.2Z" fill="url(#paint2_linear_2318_8813)"/>
<path d="M27.1 15.7996L12.5 7.49962C11.6 6.99962 10.9 7.09962 10.4 7.59962L22.9 19.9996L27.1 15.7996Z" fill="url(#paint3_linear_2318_8813)"/>
<path opacity="0.2" d="M27 24.0996L12.5 32.2996C11.7 32.7996 11 32.6996 10.5 32.2996L10.4 32.3996L10.5 32.4996C11 32.8996 11.7 32.9996 12.5 32.4996L27 24.0996Z" fill="black"/>
<path opacity="0.12" d="M10.4 32.3C10.1 32 10 31.5 10 30.9V31C10 31.6 10.2 32.1 10.5 32.4V32.3H10.4ZM32 21.3L27 24.1L27.1 24.2L32 21.4C32.7 21 33 20.5 33 20C33 20.5 32.6 20.9 32 21.3Z" fill="black"/>
<path opacity="0.25" d="M12.5 7.60037L32 18.7004C32.6 19.1004 33 19.5004 33 20.0004C33 19.5004 32.7 19.0004 32 18.6004L12.5 7.50037C11.1 6.70037 10 7.40037 10 9.00037V9.10037C10 7.50037 11.1 6.80037 12.5 7.60037Z" fill="white"/>
</g>
<defs>
<linearGradient id="paint0_linear_2318_8813" x1="21.8" y1="8.71" x2="5.01702" y2="25.492" gradientUnits="userSpaceOnUse">
<stop stop-color="#00A0FF"/>
<stop offset="0.007" stop-color="#00A1FF"/>
<stop offset="0.26" stop-color="#00BEFF"/>
<stop offset="0.512" stop-color="#00D2FF"/>
<stop offset="0.76" stop-color="#00DFFF"/>
<stop offset="1" stop-color="#00E3FF"/>
</linearGradient>
<linearGradient id="paint1_linear_2318_8813" x1="33.834" y1="20.0008" x2="9.63702" y2="20.0008" gradientUnits="userSpaceOnUse">
<stop stop-color="#FFE000"/>
<stop offset="0.409" stop-color="#FFBD00"/>
<stop offset="0.775" stop-color="#FFA500"/>
<stop offset="1" stop-color="#FF9C00"/>
</linearGradient>
<linearGradient id="paint2_linear_2318_8813" x1="24.827" y1="22.296" x2="2.06903" y2="45.054" gradientUnits="userSpaceOnUse">
<stop stop-color="#FF3A44"/>
<stop offset="1" stop-color="#C31162"/>
</linearGradient>
<linearGradient id="paint3_linear_2318_8813" x1="7.29702" y1="0.175624" x2="17.46" y2="10.3386" gradientUnits="userSpaceOnUse">
<stop stop-color="#32A071"/>
<stop offset="0.069" stop-color="#2DA771"/>
<stop offset="0.476" stop-color="#15CF74"/>
<stop offset="0.801" stop-color="#06E775"/>
<stop offset="1" stop-color="#00F076"/>
</linearGradient>
<clipPath id="clip0_2318_8813">
<rect width="135" height="40" fill="white"/>
</clipPath>
</defs>
</svg>
