<svg width="56" height="56" viewBox="0 0 56 56" fill="none" xmlns="http://www.w3.org/2000/svg">
<path d="M46 27.9921C46 25.9761 44.808 24.1881 42.988 23.4001C43.38 22.6761 43.584 21.8601 43.584 21.0161C43.584 18.3801 41.532 16.2121 38.94 16.0201C38.956 15.8641 38.96 15.7001 38.96 15.5401V15.4681C38.92 12.7401 36.692 10.5281 33.952 10.5281C31.444 10.5281 29.344 12.3561 28.992 14.8081C28.952 14.8721 28.928 14.9441 28.928 15.0241V40.9721C28.928 41.0441 28.952 41.1081 28.988 41.1681C29.332 43.6321 31.44 45.4721 33.952 45.4721C36.696 45.4721 38.932 43.2521 38.96 40.5161V40.4641C38.96 40.3721 38.952 40.2801 38.948 40.1921V40.1481C38.948 40.0961 38.948 40.0401 38.94 39.9841C41.532 39.7881 43.584 37.6161 43.584 34.9761C43.584 34.1401 43.38 33.3281 42.988 32.6041C44.808 31.8081 46.004 30.0161 46.004 28.0001L46 27.9921ZM22.036 10.5321C19.296 10.5321 17.068 12.7401 17.028 15.4721V15.5441C17.028 15.7081 17.036 15.8681 17.048 16.0241C14.456 16.2161 12.404 18.3841 12.404 21.0201C12.404 21.8641 12.608 22.6761 13 23.4041C11.188 24.1881 10 25.9761 10 27.9961C10 30.0161 11.188 31.8041 13 32.6001C12.608 33.3241 12.404 34.1361 12.404 34.9721C12.404 37.6161 14.456 39.7881 17.048 39.9801C17.044 40.0361 17.044 40.0921 17.04 40.1481C17.032 40.2521 17.028 40.3561 17.028 40.4601V40.5121C17.056 43.2521 19.292 45.4681 22.036 45.4681C24.54 45.4681 26.644 43.6401 26.996 41.1881C27.036 41.1241 27.06 41.0521 27.06 40.9721V15.0281C27.0585 14.9584 27.0378 14.8906 27 14.8321C26.66 12.3681 24.552 10.5281 22.036 10.5281V10.5321Z" fill="#1B88EC"/>
</svg>
