<svg width="56" height="56" viewBox="0 0 56 56" fill="none" xmlns="http://www.w3.org/2000/svg">
<path d="M34.3333 11.6832C33.65 10.9998 32.4667 11.4665 32.4667 12.4165V18.2332C32.4667 20.6665 34.5333 22.6832 37.05 22.6832C38.6333 22.6998 40.8333 22.6998 42.7167 22.6998C43.6667 22.6998 44.1667 21.5832 43.5 20.9165C41.1 18.4998 36.8 14.1498 34.3333 11.6832Z" fill="#42ADA7"/>
<path d="M42.1667 24.9833H37.35C33.4 24.9833 30.1833 21.7666 30.1833 17.8166V12.9999C30.1833 12.0833 29.4333 11.3333 28.5167 11.3333H21.45C16.3167 11.3333 12.1667 14.6666 12.1667 20.6166V35.3833C12.1667 41.3333 16.3167 44.6666 21.45 44.6666H34.55C39.6833 44.6666 43.8333 41.3333 43.8333 35.3833V26.6499C43.8333 25.7333 43.0833 24.9833 42.1667 24.9833ZM27.1667 37.5833H20.5C19.8167 37.5833 19.25 37.0166 19.25 36.3333C19.25 35.6499 19.8167 35.0833 20.5 35.0833H27.1667C27.85 35.0833 28.4167 35.6499 28.4167 36.3333C28.4167 37.0166 27.85 37.5833 27.1667 37.5833ZM30.5 30.9166H20.5C19.8167 30.9166 19.25 30.3499 19.25 29.6666C19.25 28.9833 19.8167 28.4166 20.5 28.4166H30.5C31.1833 28.4166 31.75 28.9833 31.75 29.6666C31.75 30.3499 31.1833 30.9166 30.5 30.9166Z" fill="#42ADA7"/>
</svg>
