<svg width="56" height="56" viewBox="0 0 56 56" fill="none" xmlns="http://www.w3.org/2000/svg">
<path fill-rule="evenodd" clip-rule="evenodd" d="M27.954 44C26.9931 43.9907 26.0533 43.7175 25.2371 43.2103C24.421 42.7031 23.7599 41.9814 23.326 41.124L22.764 40H19.83C18.7905 40 17.7613 39.7952 16.801 39.3974C15.8407 38.9996 14.9681 38.4164 14.2332 37.6813C13.4983 36.9462 12.9154 36.0736 12.5178 35.1132C12.1202 34.1528 11.9157 33.1234 11.916 32.084C11.916 27.326 12 24.674 12 19.916C12 17.8165 12.834 15.8031 14.3185 14.3185C15.8031 12.834 17.8165 12 19.916 12H36C36.5304 12 37.0391 12.2107 37.4142 12.5858C37.7893 12.9609 38 13.4696 38 14C38 15.0609 38.4214 16.0783 39.1716 16.8284C39.9217 17.5786 40.9391 18 42 18H42.03C43.134 18.018 44.016 18.926 44 20.03C44 20.03 43.916 25.586 43.916 32.084C43.916 34.1835 43.082 36.1969 41.5974 37.6815C40.1129 39.166 38.0994 40 36 40H33.236L32.674 41.124C32.2373 41.9889 31.5692 42.7157 30.744 43.2234C29.9188 43.7312 28.9689 44 28 44H27.954ZM22 32H28C28.5304 32 29.0391 31.7893 29.4142 31.4142C29.7893 31.0391 30 30.5304 30 30C30 29.4696 29.7893 28.9609 29.4142 28.5858C29.0391 28.2107 28.5304 28 28 28H22C21.4696 28 20.9608 28.2107 20.5858 28.5858C20.2107 28.9609 20 29.4696 20 30C20 30.5304 20.2107 31.0391 20.5858 31.4142C20.9608 31.7893 21.4696 32 22 32ZM22 24H34C34.5304 24 35.0391 23.7893 35.4142 23.4142C35.7893 23.0391 36 22.5304 36 22C36 21.4696 35.7893 20.9609 35.4142 20.5858C35.0391 20.2107 34.5304 20 34 20H22C21.4696 20 20.9608 20.2107 20.5858 20.5858C20.2107 20.9609 20 21.4696 20 22C20 22.5304 20.2107 23.0391 20.5858 23.4142C20.9608 23.7893 21.4696 24 22 24ZM44 14C44 14.5304 43.7893 15.0391 43.4142 15.4142C43.0391 15.7893 42.5304 16 42 16C41.4696 16 40.9608 15.7893 40.5858 15.4142C40.2107 15.0391 40 14.5304 40 14C40 13.4696 40.2107 12.9609 40.5858 12.5858C40.9608 12.2107 41.4696 12 42 12C42.5304 12 43.0391 12.2107 43.4142 12.5858C43.7893 12.9609 44 13.4696 44 14Z" fill="#EDB932"/>
</svg>
