<svg width="56" height="56" viewBox="0 0 56 56" fill="none" xmlns="http://www.w3.org/2000/svg">
<path d="M18.6833 11.8333H37.2667C41.0391 11.8333 44.1173 14.9082 44.1333 18.7011C44.1333 18.7014 44.1333 18.7017 44.1333 18.702L44.1333 29.5333V29.8666C44.1333 33.6412 41.0731 36.7166 37.2833 36.7166H30.9333C29.7405 36.7166 28.7667 37.6904 28.7667 38.8833V40.4999C28.7667 41.6927 29.7405 42.6666 30.9333 42.6666H34.9667C35.3739 42.6666 35.7167 43.0094 35.7167 43.4166C35.7167 43.8238 35.3739 44.1666 34.9667 44.1666H21.05C20.639 44.1666 20.3 43.8201 20.3 43.3999C20.3 42.9927 20.6428 42.6499 21.05 42.6499H25.0833C26.2762 42.6499 27.25 41.6761 27.25 40.4833V38.8666C27.25 37.6738 26.2762 36.6999 25.0833 36.6999H18.6833C14.9087 36.6999 11.8333 33.6397 11.8333 29.8499V29.5166V18.6833C11.8333 14.9094 14.9095 11.8333 18.6833 11.8333Z" fill="#48BF80" stroke="#48BF80"/>
</svg>
