<svg width="56" height="56" viewBox="0 0 56 56" fill="none" xmlns="http://www.w3.org/2000/svg">
<path d="M34.9833 11.3333H21.0167C14.95 11.3333 11.3333 14.9499 11.3333 21.0166V34.9833C11.3333 41.0499 14.95 44.6666 21.0167 44.6666H34.9833C41.05 44.6666 44.6667 41.0499 44.6667 34.9833V21.0166C44.6667 14.9499 41.05 11.3333 34.9833 11.3333ZM24.6167 32.8333L20.8667 36.5833C20.6167 36.8333 20.3 36.9499 19.9833 36.9499C19.6667 36.9499 19.3333 36.8333 19.1 36.5833L17.85 35.3333C17.35 34.8499 17.35 34.0499 17.85 33.5666C18.3333 33.0833 19.1167 33.0833 19.6167 33.5666L19.9833 33.9333L22.85 31.0666C23.3333 30.5833 24.1167 30.5833 24.6167 31.0666C25.1 31.5499 25.1 32.3499 24.6167 32.8333ZM24.6167 21.1666L20.8667 24.9166C20.6167 25.1666 20.3 25.2833 19.9833 25.2833C19.6667 25.2833 19.3333 25.1666 19.1 24.9166L17.85 23.6666C17.35 23.1833 17.35 22.3833 17.85 21.8999C18.3333 21.4166 19.1167 21.4166 19.6167 21.8999L19.9833 22.2666L22.85 19.3999C23.3333 18.9166 24.1167 18.9166 24.6167 19.3999C25.1 19.8833 25.1 20.6833 24.6167 21.1666ZM37.2667 35.6999H28.5167C27.8333 35.6999 27.2667 35.1333 27.2667 34.4499C27.2667 33.7666 27.8333 33.1999 28.5167 33.1999H37.2667C37.5982 33.1999 37.9161 33.3316 38.1506 33.566C38.385 33.8005 38.5167 34.1184 38.5167 34.4499C38.5167 34.7814 38.385 35.0994 38.1506 35.3338C37.9161 35.5682 37.5982 35.6999 37.2667 35.6999ZM37.2667 24.0333H28.5167C27.8333 24.0333 27.2667 23.4666 27.2667 22.7833C27.2667 22.0999 27.8333 21.5333 28.5167 21.5333H37.2667C37.5982 21.5333 37.9161 21.6649 38.1506 21.8994C38.385 22.1338 38.5167 22.4517 38.5167 22.7833C38.5167 23.1148 38.385 23.4327 38.1506 23.6671C37.9161 23.9016 37.5982 24.0333 37.2667 24.0333Z" fill="#E96C3F"/>
</svg>
