<svg width="56" height="56" viewBox="0 0 56 56" fill="none" xmlns="http://www.w3.org/2000/svg">
<g clip-path="url(#clip0_133_13154)">
<path d="M40.16 8.80005H38.56V15.68C39.84 16.32 40.8 17.6 40.8 19.2C40.8 21.44 39.04 23.2 36.8 23.2C34.72 23.2 32.8 21.44 32.8 19.2C32.8 17.6 33.76 16.32 35.2 15.68V8.80005H15.84C12 8.80005 8.79999 12 8.79999 15.84V23.84H15.68L18.24 20.64C17.6 20 17.44 19.2 17.44 18.24C17.44 16.16 19.2 14.4 21.28 14.4C23.36 14.4 25.28 16.16 25.28 18.4C25.28 20.48 23.52 22.24 21.28 22.24H20.96L17.76 26.56C17.44 27.04 16.96 27.2 16.48 27.2H8.79999V34.08H17.76C18.4 32.8 19.68 31.68 21.28 31.68C23.36 31.68 25.28 33.44 25.28 35.68C25.28 37.76 23.52 39.68 21.28 39.68C19.68 39.68 18.4 38.72 17.76 37.28H8.79999V40.32C8.79999 44.16 12 47.36 15.84 47.36H40.16C44 47.36 47.2 44.16 47.2 40.32V39.84H39.68C39.2 39.84 38.72 39.52 38.4 39.2L36 36.48H35.68C33.44 36.48 31.68 34.72 31.68 32.48C31.68 30.24 33.44 28.48 35.68 28.48C37.76 28.48 39.52 30.24 39.52 32.48C39.52 33.28 39.2 34.08 38.72 34.72L40.48 36.32H47.2V15.84C47.2 12 44 8.80005 40.16 8.80005Z" fill="url(#paint0_linear_133_13154)"/>
</g>
<defs>
<linearGradient id="paint0_linear_133_13154" x1="10.9873" y1="38.7912" x2="45.9902" y2="38.5705" gradientUnits="userSpaceOnUse">
<stop stop-color="#0575E6"/>
<stop offset="1" stop-color="#38E27B"/>
</linearGradient>
<clipPath id="clip0_133_13154">
<rect width="40" height="40" fill="white" transform="translate(8 8)"/>
</clipPath>
</defs>
</svg>
