<svg width="24" height="24" viewBox="0 0 24 24" fill="none" xmlns="http://www.w3.org/2000/svg">
<g id="vuesax/outline/send-2">
<g id="send-2">
<path id="Vector" d="M9.91946 14.0698L9.92153 14.076L9.56705 13.9578L7.40705 13.2378C5.49246 12.5996 4.41864 11.9032 3.83029 11.2918C3.57595 11.0275 3.4092 10.7763 3.30248 10.5443C3.49521 10.9483 3.82815 11.3246 4.24147 11.6581C4.92979 12.2134 5.96243 12.7541 7.40331 13.2311C7.40362 13.2312 7.40394 13.2313 7.40425 13.2314L9.91946 14.0698ZM4.24073 7.89996C3.87689 8.19424 3.57528 8.52151 3.37693 8.87162C3.48232 8.68127 3.62913 8.47915 3.83118 8.26847C4.42011 7.65439 5.49431 6.95336 7.40789 6.31057C7.40815 6.31049 7.40841 6.3104 7.40867 6.31031L12.0953 4.7481L7.40196 6.31808L7.40194 6.31808C5.96104 6.80011 4.92866 7.34354 4.24073 7.89996ZM18.2277 3.11586C17.8788 3.09359 17.5089 3.11394 17.1245 3.17321C18.4803 2.95902 19.4846 3.26042 20.112 3.88211C20.9115 4.67428 21.1851 6.10125 20.5187 8.09116L20.5184 8.09217L17.6885 16.5816C17.6885 16.5818 17.6885 16.5819 17.6884 16.582C17.6884 16.5821 17.6884 16.5821 17.6884 16.5822C17.0451 18.507 16.346 19.586 15.7331 20.1769C15.1388 20.7499 14.6118 20.8793 14.2199 20.8793C13.8278 20.8793 13.3008 20.7497 12.7079 20.1781C12.2288 19.7163 11.6974 18.9555 11.1827 17.7242C11.5476 18.5905 11.9387 19.2577 12.3373 19.7492C12.8764 20.414 13.5259 20.8693 14.2199 20.8693C14.9151 20.8693 15.5621 20.4126 16.0993 19.7485C16.6557 19.0606 17.1991 18.0282 17.6811 16.5873L17.6814 16.5865L20.5114 8.09651L20.5119 8.09512C20.7882 7.26061 20.9165 6.46094 20.8682 5.74975C20.8199 5.03917 20.5899 4.36869 20.1002 3.87901C19.6089 3.38775 18.9366 3.16111 18.2277 3.11586Z" fill="#292D32" stroke="#3699FF" stroke-width="1.5"/>
<path id="Vector_2" d="M10.0975 13.6626C10.0975 13.6626 10.0975 13.6626 10.0975 13.6626L10.0918 13.6683L10.0975 13.6626Z" fill="#292D32" stroke="#3699FF" stroke-width="1.5"/>
</g>
</g>
</svg>
