<svg width="72" height="72" viewBox="0 0 72 72" fill="none" xmlns="http://www.w3.org/2000/svg">
<circle cx="36" cy="36" r="30" fill="#212121"/>
<path d="M36.4895 25.2167L36.4894 25.2166C34.1461 23.8684 31.3748 23.8667 29.0581 25.2181C26.7445 26.5677 25.36 28.9821 25.36 31.65V41.7C25.36 44.3991 26.7456 46.7829 29.0581 48.1319C30.2168 48.8078 31.4741 49.13 32.76 49.13C34.0142 49.13 35.3013 48.8086 36.4606 48.1327C36.461 48.1324 36.4615 48.1321 36.4619 48.1319L45.1594 43.1234C45.1594 43.1234 45.1595 43.1233 45.1595 43.1233C47.5056 41.7734 48.89 39.3575 48.89 36.66C48.89 33.9609 47.5044 31.5771 45.1919 30.2281L45.1895 30.2267L36.4895 25.2167ZM6.41 36C6.41 19.7161 19.6261 6.5 35.91 6.5C52.2235 6.5 65.41 19.7158 65.41 36C65.41 52.2839 52.1939 65.5 35.91 65.5C19.6261 65.5 6.41 52.2839 6.41 36Z" fill="white" stroke="white"/>
</svg>
