<svg width="40" height="40" viewBox="0 0 40 40" fill="none" xmlns="http://www.w3.org/2000/svg">
<path d="M26.3333 3.68316C25.65 2.99983 24.4667 3.46649 24.4667 4.41649V10.2332C24.4667 12.6665 26.5333 14.6832 29.05 14.6832C30.6333 14.6998 32.8333 14.6998 34.7167 14.6998C35.6667 14.6998 36.1667 13.5832 35.5 12.9165C33.1 10.4998 28.8 6.14983 26.3333 3.68316Z" fill="#42ADA7"/>
<path d="M34.1667 16.9833H29.35C25.4 16.9833 22.1833 13.7666 22.1833 9.81659V4.99992C22.1833 4.08325 21.4333 3.33325 20.5167 3.33325H13.45C8.31666 3.33325 4.16666 6.66659 4.16666 12.6166V27.3833C4.16666 33.3333 8.31666 36.6666 13.45 36.6666H26.55C31.6833 36.6666 35.8333 33.3333 35.8333 27.3833V18.6499C35.8333 17.7333 35.0833 16.9833 34.1667 16.9833ZM19.1667 29.5833H12.5C11.8167 29.5833 11.25 29.0166 11.25 28.3333C11.25 27.6499 11.8167 27.0833 12.5 27.0833H19.1667C19.85 27.0833 20.4167 27.6499 20.4167 28.3333C20.4167 29.0166 19.85 29.5833 19.1667 29.5833ZM22.5 22.9166H12.5C11.8167 22.9166 11.25 22.3499 11.25 21.6666C11.25 20.9833 11.8167 20.4166 12.5 20.4166H22.5C23.1833 20.4166 23.75 20.9833 23.75 21.6666C23.75 22.3499 23.1833 22.9166 22.5 22.9166Z" fill="#42ADA7"/>
</svg>
