<svg width="40" height="40" viewBox="0 0 40 40" fill="none" xmlns="http://www.w3.org/2000/svg">
<g clip-path="url(#clip0_574_12950)">
<path d="M32.16 0.800049H30.56V7.68005C31.84 8.32005 32.8 9.60005 32.8 11.2C32.8 13.44 31.04 15.2 28.8 15.2C26.72 15.2 24.8 13.44 24.8 11.2C24.8 9.60005 25.76 8.32005 27.2 7.68005V0.800049H7.83999C3.99999 0.800049 0.799988 4.00005 0.799988 7.84005V15.84H7.67999L10.24 12.64C9.59999 12 9.43999 11.2 9.43999 10.24C9.43999 8.16005 11.2 6.40005 13.28 6.40005C15.36 6.40005 17.28 8.16005 17.28 10.4C17.28 12.48 15.52 14.24 13.28 14.24H12.96L9.75999 18.56C9.43999 19.04 8.95999 19.2 8.47999 19.2H0.799988V26.08H9.75999C10.4 24.8 11.68 23.68 13.28 23.68C15.36 23.68 17.28 25.44 17.28 27.68C17.28 29.76 15.52 31.68 13.28 31.68C11.68 31.68 10.4 30.72 9.75999 29.28H0.799988V32.32C0.799988 36.16 3.99999 39.36 7.83999 39.36H32.16C36 39.36 39.2 36.16 39.2 32.32V31.84H31.68C31.2 31.84 30.72 31.52 30.4 31.2L28 28.48H27.68C25.44 28.48 23.68 26.72 23.68 24.48C23.68 22.24 25.44 20.48 27.68 20.48C29.76 20.48 31.52 22.24 31.52 24.48C31.52 25.28 31.2 26.08 30.72 26.72L32.48 28.32H39.2V7.84005C39.2 4.00005 36 0.800049 32.16 0.800049Z" fill="url(#paint0_linear_574_12950)"/>
</g>
<defs>
<linearGradient id="paint0_linear_574_12950" x1="2.98733" y1="30.7912" x2="37.9902" y2="30.5705" gradientUnits="userSpaceOnUse">
<stop stop-color="#0575E6"/>
<stop offset="1" stop-color="#38E27B"/>
</linearGradient>
<clipPath id="clip0_574_12950">
<rect width="40" height="40" fill="white"/>
</clipPath>
</defs>
</svg>
