<svg width="40" height="40" viewBox="0 0 40 40" fill="none" xmlns="http://www.w3.org/2000/svg">
<path fill-rule="evenodd" clip-rule="evenodd" d="M19.954 36C18.9931 35.9907 18.0533 35.7175 17.2371 35.2103C16.421 34.7031 15.7599 33.9814 15.326 33.124L14.764 32H11.83C10.7905 32 9.76127 31.7952 8.80097 31.3974C7.84067 30.9996 6.96814 30.4164 6.23324 29.6813C5.49833 28.9462 4.91543 28.0736 4.51783 27.1132C4.12023 26.1528 3.91572 25.1234 3.91599 24.084C3.91599 19.326 3.99999 16.674 3.99999 11.916C3.99999 9.81655 4.83399 7.80308 6.31853 6.31854C7.80307 4.834 9.81653 4 11.916 4H28C28.5304 4 29.0391 4.21071 29.4142 4.58579C29.7893 4.96086 30 5.46957 30 6C30 7.06087 30.4214 8.07828 31.1716 8.82843C31.9217 9.57857 32.9391 10 34 10H34.03C35.134 10.018 36.016 10.926 36 12.03C36 12.03 35.916 17.586 35.916 24.084C35.916 26.1835 35.082 28.1969 33.5974 29.6815C32.1129 31.166 30.0994 32 28 32H25.236L24.674 33.124C24.2373 33.9889 23.5692 34.7157 22.744 35.2234C21.9188 35.7312 20.9689 36 20 36H19.954ZM14 24H20C20.5304 24 21.0391 23.7893 21.4142 23.4142C21.7893 23.0391 22 22.5304 22 22C22 21.4696 21.7893 20.9609 21.4142 20.5858C21.0391 20.2107 20.5304 20 20 20H14C13.4696 20 12.9608 20.2107 12.5858 20.5858C12.2107 20.9609 12 21.4696 12 22C12 22.5304 12.2107 23.0391 12.5858 23.4142C12.9608 23.7893 13.4696 24 14 24ZM14 16H26C26.5304 16 27.0391 15.7893 27.4142 15.4142C27.7893 15.0391 28 14.5304 28 14C28 13.4696 27.7893 12.9609 27.4142 12.5858C27.0391 12.2107 26.5304 12 26 12H14C13.4696 12 12.9608 12.2107 12.5858 12.5858C12.2107 12.9609 12 13.4696 12 14C12 14.5304 12.2107 15.0391 12.5858 15.4142C12.9608 15.7893 13.4696 16 14 16ZM36 6C36 6.53043 35.7893 7.03914 35.4142 7.41421C35.0391 7.78929 34.5304 8 34 8C33.4696 8 32.9608 7.78929 32.5858 7.41421C32.2107 7.03914 32 6.53043 32 6C32 5.46957 32.2107 4.96086 32.5858 4.58579C32.9608 4.21071 33.4696 4 34 4C34.5304 4 35.0391 4.21071 35.4142 4.58579C35.7893 4.96086 36 5.46957 36 6Z" fill="#EDB932"/>
</svg>
