<svg width="50" height="50" viewBox="0 0 50 50" fill="none" xmlns="http://www.w3.org/2000/svg">
<path d="M24.9854 0.870605C38.4055 0.870605 49.2846 11.7497 49.2846 25.1698C49.2846 38.5899 38.4055 49.4691 24.9854 49.4691C11.5653 49.4691 0.686157 38.5899 0.686157 25.1698C0.686157 11.7497 11.5653 0.870605 24.9854 0.870605Z" fill="black" stroke="white"/>
<path d="M20.5128 32.7769C16.755 32.7769 14.1379 29.9361 14.1379 26.4244C14.1379 22.9573 16.755 20.0942 20.5128 20.0942C24.2706 20.0942 26.8877 22.9573 26.8877 26.4244C26.8877 29.9361 24.2706 32.7769 20.5128 32.7769ZM20.5128 30.473C22.7049 30.473 24.4048 28.6612 24.4048 26.4244C24.4048 24.2323 22.7049 22.3758 20.5128 22.3758C18.3208 22.3758 16.6208 24.2323 16.6208 26.4244C16.6208 28.6612 18.3208 30.473 20.5128 30.473ZM29.3579 32.4637V20.4074H31.7065V22.1297C32.4446 20.7429 33.5854 20.0942 35.1288 20.0942C35.5538 20.0942 36.0459 20.139 36.5603 20.2956L36.3367 22.6889C35.8893 22.5323 35.442 22.4652 35.017 22.4652C33.2723 22.4652 31.8183 23.606 31.8183 26.2902V32.4637H29.3579Z" fill="white"/>
</svg>
