<svg width="40" height="40" viewBox="0 0 40 40" fill="none" xmlns="http://www.w3.org/2000/svg">
<path d="M10.6833 3.83325H29.2667C33.0391 3.83325 36.1173 6.90822 36.1333 10.7011C36.1333 10.7014 36.1333 10.7017 36.1333 10.702L36.1333 21.5333V21.8666C36.1333 25.6412 33.0731 28.7166 29.2833 28.7166H22.9333C21.7405 28.7166 20.7667 29.6904 20.7667 30.8833V32.4999C20.7667 33.6927 21.7405 34.6666 22.9333 34.6666H26.9667C27.3739 34.6666 27.7167 35.0094 27.7167 35.4166C27.7167 35.8238 27.3739 36.1666 26.9667 36.1666H13.05C12.639 36.1666 12.3 35.8201 12.3 35.3999C12.3 34.9927 12.6428 34.6499 13.05 34.6499H17.0833C18.2762 34.6499 19.25 33.6761 19.25 32.4833V30.8666C19.25 29.6738 18.2762 28.6999 17.0833 28.6999H10.6833C6.90875 28.6999 3.83334 25.6397 3.83334 21.8499V21.5166V10.6833C3.83334 6.90939 6.90949 3.83325 10.6833 3.83325Z" fill="#48BF80" stroke="#48BF80"/>
</svg>
