<svg width="33" height="32" viewBox="0 0 33 32" fill="none" xmlns="http://www.w3.org/2000/svg">
<path d="M16.8562 10.9665L16.856 10.9664C15.7294 10.3183 14.3915 10.3165 13.2747 10.9679C12.1612 11.6175 11.4933 12.7819 11.4933 14.0665V18.5332C11.4933 19.8323 12.1623 20.9828 13.2747 21.6317C13.8335 21.9577 14.4408 22.1132 15.06 22.1132C15.6642 22.1132 16.2845 21.9585 16.8438 21.6326C16.8443 21.6323 16.8448 21.632 16.8453 21.6317L20.7093 19.4066C21.8389 18.7567 22.5067 17.5908 22.5067 16.2932C22.5067 14.994 21.8377 13.8436 20.7253 13.1946L20.7228 13.1932L16.8562 10.9665ZM3.62667 15.9998C3.62667 8.91598 9.37614 3.1665 16.46 3.1665C23.5569 3.1665 29.2933 8.91565 29.2933 15.9998C29.2933 23.0837 23.5439 28.8332 16.46 28.8332C9.37614 28.8332 3.62667 23.0837 3.62667 15.9998Z" fill="#5C98F6" stroke="#5C98F6"/>
</svg>
