<svg width="40" height="40" viewBox="0 0 40 40" fill="none" xmlns="http://www.w3.org/2000/svg">
<path d="M38 19.9921C38 17.9761 36.808 16.1881 34.988 15.4001C35.38 14.6761 35.584 13.8601 35.584 13.0161C35.584 10.3801 33.532 8.21208 30.94 8.02008C30.956 7.86408 30.96 7.70008 30.96 7.54008V7.46808C30.92 4.74008 28.692 2.52808 25.952 2.52808C23.444 2.52808 21.344 4.35608 20.992 6.80808C20.952 6.87208 20.928 6.94408 20.928 7.02408V32.9721C20.928 33.0441 20.952 33.1081 20.988 33.1681C21.332 35.6321 23.44 37.4721 25.952 37.4721C28.696 37.4721 30.932 35.2521 30.96 32.5161V32.4641C30.96 32.3721 30.952 32.2801 30.948 32.1921V32.1481C30.948 32.0961 30.948 32.0401 30.94 31.9841C33.532 31.7881 35.584 29.6161 35.584 26.9761C35.584 26.1401 35.38 25.3281 34.988 24.6041C36.808 23.8081 38.004 22.0161 38.004 20.0001L38 19.9921ZM14.036 2.53208C11.296 2.53208 9.068 4.74008 9.028 7.47208V7.54408C9.028 7.70808 9.036 7.86808 9.048 8.02408C6.456 8.21608 4.404 10.3841 4.404 13.0201C4.404 13.8641 4.608 14.6761 5 15.4041C3.188 16.1881 2 17.9761 2 19.9961C2 22.0161 3.188 23.8041 5 24.6001C4.608 25.3241 4.404 26.1361 4.404 26.9721C4.404 29.6161 6.456 31.7881 9.048 31.9801C9.044 32.0361 9.044 32.0921 9.04 32.1481C9.032 32.2521 9.028 32.3561 9.028 32.4601V32.5121C9.056 35.2521 11.292 37.4681 14.036 37.4681C16.54 37.4681 18.644 35.6401 18.996 33.1881C19.036 33.1241 19.06 33.0521 19.06 32.9721V7.02808C19.0585 6.95845 19.0378 6.89059 19 6.83208C18.66 4.36808 16.552 2.52808 14.036 2.52808V2.53208Z" fill="#1B88EC"/>
</svg>
