<svg xmlns="http://www.w3.org/2000/svg" width="25" height="24" viewBox="0 0 25 24" fill="none">
  <path d="M3 12C3 6.75614 7.25614 2.5 12.5 2.5C17.7439 2.5 22 6.75614 22 12C22 17.2439 17.7439 21.5 12.5 21.5C7.25614 21.5 3 17.2439 3 12ZM6.5 15.39C7.18614 15.39 7.75 14.8261 7.75 14.14V9.86C7.75 9.17386 7.18614 8.61 6.5 8.61C5.81386 8.61 5.25 9.17386 5.25 9.86V14.14C5.25 14.8261 5.81386 15.39 6.5 15.39ZM9.5 16.82C10.1861 16.82 10.75 16.2561 10.75 15.57V8.43C10.75 7.74386 10.1861 7.18 9.5 7.18C8.81386 7.18 8.25 7.74386 8.25 8.43V15.57C8.25 16.2561 8.81386 16.82 9.5 16.82ZM12.5 18.25C13.1861 18.25 13.75 17.6861 13.75 17V7C13.75 6.31386 13.1861 5.75 12.5 5.75C11.8139 5.75 11.25 6.31386 11.25 7V17C11.25 17.6861 11.8139 18.25 12.5 18.25ZM15.5 16.82C16.1861 16.82 16.75 16.2561 16.75 15.57V8.43C16.75 7.74386 16.1861 7.18 15.5 7.18C14.8139 7.18 14.25 7.74386 14.25 8.43V15.57C14.25 16.2561 14.8139 16.82 15.5 16.82ZM18.5 15.39C19.1861 15.39 19.75 14.8261 19.75 14.14V9.86C19.75 9.17386 19.1861 8.61 18.5 8.61C17.8139 8.61 17.25 9.17386 17.25 9.86V14.14C17.25 14.8261 17.8139 15.39 18.5 15.39Z" fill="#48BF80" stroke="#48BF80"/>
</svg>