<svg width="24" height="24" viewBox="0 0 24 24" fill="none" xmlns="http://www.w3.org/2000/svg">
<g clip-path="url(#clip0_1_3627)">
<path d="M6.10492 6.48127L4.02565 6.6419C3.44708 6.68662 2.93179 6.98985 2.61182 7.47383L0.213854 11.1006C-0.0288162 11.4676 -0.067394 11.927 0.110589 12.3293C0.288619 12.7317 0.654475 13.0121 1.08924 13.0795L2.99305 13.3743C3.43841 11.0109 4.50452 8.6533 6.10492 6.48127ZM10.6256 21.0069L10.9205 22.9107C10.9879 23.3455 11.2683 23.7113 11.6706 23.8893C11.8346 23.9621 12.0121 23.9998 12.1915 24C12.4434 23.9998 12.6896 23.9254 12.8994 23.7861L16.5263 21.3881C17.0103 21.0681 17.3135 20.5528 17.3581 19.9743L17.5187 17.8951C15.3467 19.4955 12.9891 20.5616 10.6256 21.0069ZM9.90964 19.6873C9.97573 19.6873 10.0422 19.6819 10.1085 19.6709C11.0987 19.5053 12.0531 19.2264 12.9635 18.8613L5.13869 11.0365C4.77363 11.9469 4.49473 12.9013 4.32917 13.8915C4.26392 14.2818 4.39484 14.6795 4.67463 14.9593L9.04072 19.3254C9.27303 19.5576 9.58658 19.6873 9.90964 19.6873ZM22.0863 10.6407C24.0011 6.93881 24.072 3.02684 23.9719 1.19217C23.9377 0.563529 23.4365 0.0623458 22.8078 0.0280804C22.4575 0.00918624 22.1068 -0.000176523 21.756 2.51968e-06C19.7045 2.51968e-06 16.4584 0.310735 13.3593 1.91371C10.8964 3.18762 7.66687 5.99264 5.76151 9.67896C5.78401 9.69654 5.806 9.71519 5.82672 9.73591L14.2641 18.1733C14.2849 18.1941 14.3035 18.216 14.3211 18.2385C18.0074 16.3331 20.8124 13.1036 22.0863 10.6407ZM13.9545 5.07371C15.3252 3.70305 17.5555 3.70291 18.9263 5.07371C19.5903 5.73769 19.956 6.62058 19.956 7.55962C19.956 8.49866 19.5903 9.38154 18.9263 10.0455C18.241 10.7308 17.3405 11.0735 16.4404 11.0736C15.54 11.0736 14.6399 10.731 13.9545 10.0455C13.2905 9.38154 12.9248 8.49866 12.9248 7.55962C12.9248 6.62058 13.2905 5.73769 13.9545 5.07371Z" fill="#212121"/>
<path d="M14.9487 9.05105C15.7711 9.87347 17.1094 9.87351 17.9318 9.05105C18.3302 8.65262 18.5496 8.12293 18.5496 7.5595C18.5496 6.99607 18.3302 6.46638 17.9318 6.068C17.5206 5.65676 16.9804 5.45117 16.4402 5.45117C15.9001 5.45117 15.3599 5.65676 14.9487 6.068C14.5503 6.46638 14.3309 6.99607 14.3309 7.5595C14.3309 8.12293 14.5503 8.65266 14.9487 9.05105ZM0.717252 19.7781C0.897204 19.7781 1.07716 19.7095 1.2144 19.5722L3.51 17.2766C3.78459 17.002 3.78459 16.5568 3.51 16.2822C3.23545 16.0076 2.79024 16.0076 2.51564 16.2822L0.220053 18.5778C-0.0545386 18.8524 -0.0545386 19.2976 0.220053 19.5722C0.285273 19.6375 0.362772 19.6894 0.448099 19.7248C0.533425 19.7601 0.624895 19.7782 0.717252 19.7781ZM5.61378 18.386C5.33923 18.1114 4.89402 18.1114 4.61942 18.386L0.205944 22.7995C-0.0686479 23.0741 -0.0686479 23.5192 0.205944 23.7938C0.34324 23.9311 0.523191 23.9997 0.703143 23.9997C0.883095 23.9997 1.06305 23.9311 1.2003 23.7938L5.61373 19.3803C5.88837 19.1058 5.88837 18.6606 5.61378 18.386ZM6.72316 20.4898L4.42761 22.7854C4.15302 23.06 4.15302 23.5051 4.42761 23.7797C4.56491 23.917 4.74486 23.9857 4.92477 23.9857C5.10467 23.9857 5.28467 23.9171 5.42192 23.7797L7.71751 21.4841C7.9921 21.2095 7.9921 20.7644 7.71751 20.4898C7.44297 20.2152 6.99775 20.2152 6.72316 20.4898Z" fill="#212121"/>
</g>
<defs>
<clipPath id="clip0_1_3627">
<rect width="24" height="24" fill="white"/>
</clipPath>
</defs>
</svg>
