<svg xmlns="http://www.w3.org/2000/svg" width="24" height="24" viewBox="0 0 24 24" fill="none">
  <path fill-rule="evenodd" clip-rule="evenodd" d="M2.483 15.129L1.266 7.524C1.22688 7.27975 1.25904 7.0294 1.35862 6.80296C1.45819 6.57652 1.62097 6.38361 1.82742 6.24734C2.03387 6.11108 2.27524 6.03725 2.5226 6.03471C2.76995 6.03216 3.01279 6.10101 3.222 6.233L7.035 8.641L11.031 4.061C11.1517 3.92266 11.3006 3.81177 11.4678 3.73578C11.6349 3.6598 11.8164 3.62048 12 3.62048C12.1836 3.62048 12.3651 3.6598 12.5322 3.73578C12.6994 3.81177 12.8483 3.92266 12.969 4.061L16.965 8.641L20.778 6.233C20.9873 6.10147 21.23 6.03299 21.4772 6.03574C21.7244 6.0385 21.9655 6.11237 22.1718 6.24853C22.3781 6.38469 22.5408 6.57738 22.6405 6.80357C22.7402 7.02975 22.7727 7.27987 22.734 7.524L21.517 15.129H2.483ZM21.277 16.629L20.922 18.846C20.8537 19.2738 20.6352 19.6632 20.3057 19.9443C19.9761 20.2255 19.5572 20.3799 19.124 20.38H4.876C3.982 20.38 3.219 19.73 3.078 18.846L2.723 16.629H21.277Z" fill="#212121"/>
</svg>