<svg xmlns="http://www.w3.org/2000/svg" width="24" height="24" viewBox="0 0 24 24" fill="none">
  <path d="M12.1141 5.88586C8.7433 5.88586 6.00098 8.62819 6.00098 11.999C6.00098 15.3708 8.7433 18.114 12.1141 18.114C15.486 18.114 18.2291 15.3708 18.2291 11.999C18.2292 8.62819 15.486 5.88586 12.1141 5.88586ZM12.1144 16.9071C9.40888 16.9071 7.20781 14.7054 7.20781 11.9992C7.20781 9.29373 9.40888 7.09265 12.1144 7.09265C14.8206 7.09265 17.0223 9.29373 17.0223 11.9992C17.0223 14.7054 14.8206 16.9071 12.1144 16.9071Z" fill="#212121"/>
  <path d="M12.115 7.55432C9.66395 7.55432 7.66992 9.54835 7.66992 11.9994C7.66992 14.4511 9.66395 16.4457 12.115 16.4457C14.5667 16.4457 16.5613 14.4511 16.5613 11.9994C16.5613 9.54835 14.5667 7.55432 12.115 7.55432ZM15.067 11.4632L13.4624 12.629L14.0752 14.5152C14.0903 14.5616 14.0904 14.6115 14.0753 14.6579C14.0603 14.7042 14.0309 14.7446 13.9915 14.7733C13.9521 14.8019 13.9046 14.8174 13.8559 14.8174C13.8071 14.8174 13.7596 14.8019 13.7202 14.7732L12.1156 13.6075L10.5111 14.7732C10.4717 14.8019 10.4242 14.8173 10.3755 14.8173C10.3267 14.8173 10.2793 14.8019 10.2398 14.7732C10.2004 14.7446 10.1711 14.7042 10.156 14.6579C10.1409 14.6115 10.1409 14.5616 10.156 14.5152L10.7689 12.629L9.16434 11.4632C9.12491 11.4346 9.09557 11.3942 9.08051 11.3478C9.06545 11.3015 9.06545 11.2516 9.08051 11.2052C9.09557 11.1589 9.12492 11.1185 9.16434 11.0898C9.20377 11.0612 9.25125 11.0458 9.29998 11.0458H11.2833L11.8962 9.15951C11.9113 9.1132 11.9406 9.07285 11.9801 9.04424C12.0195 9.01563 12.067 9.00022 12.1157 9.00022C12.1644 9.00022 12.2118 9.01563 12.2513 9.04424C12.2907 9.07285 12.3201 9.1132 12.3352 9.15951L12.948 11.0458H14.9314C14.9801 11.0458 15.0276 11.0612 15.067 11.0899C15.1064 11.1185 15.1357 11.1589 15.1508 11.2053C15.1658 11.2516 15.1658 11.3015 15.1508 11.3479C15.1357 11.3942 15.1064 11.4346 15.067 11.4632Z" fill="#212121"/>
  <path d="M12.5606 11.3478L12.1154 9.97754L11.6702 11.3478C11.6551 11.3941 11.6258 11.4345 11.5864 11.4631C11.5469 11.4918 11.4994 11.5072 11.4507 11.5072H10.01L11.1756 12.3541C11.215 12.3827 11.2444 12.4231 11.2594 12.4695C11.2745 12.5158 11.2745 12.5657 11.2594 12.6121L10.8142 13.9823L11.9798 13.1354C12.0203 13.106 12.0678 13.0914 12.1154 13.0914C12.163 13.0914 12.2106 13.106 12.251 13.1354L13.4166 13.9823L12.9714 12.6121C12.9564 12.5657 12.9564 12.5158 12.9714 12.4695C12.9865 12.4231 13.0158 12.3827 13.0553 12.3541L14.2208 11.5072H12.78C12.7313 11.5072 12.6838 11.4918 12.6444 11.4632C12.605 11.4345 12.5756 11.3942 12.5606 11.3478Z" fill="#212121"/>
  <path d="M22.1599 12C22.1603 11.5405 22.0548 11.0871 21.8517 10.6749C21.6486 10.2627 21.3534 9.90274 20.9889 9.62297C21.3446 8.76312 21.2835 7.78826 20.8148 6.97854C20.3457 6.16619 19.5321 5.62572 18.6117 5.50512C18.4895 4.58279 17.9492 3.76859 17.1386 3.3004C16.6844 3.03797 16.1693 2.89958 15.6447 2.89909C15.2516 2.89909 14.8572 2.97788 14.4929 3.12811C13.9287 2.3902 13.0538 1.9552 12.1152 1.9552C11.6554 1.95484 11.2017 2.06048 10.7894 2.26393C10.3771 2.46737 10.0173 2.76314 9.73781 3.12825C9.37338 2.97797 8.97899 2.89919 8.58594 2.89919C8.06191 2.89956 7.54721 3.03795 7.09365 3.30045C6.2813 3.7696 5.74084 4.5838 5.62024 5.50517C4.69896 5.62572 3.88476 6.16609 3.4157 6.97836C2.94742 7.78729 2.88691 8.76211 3.24327 9.62283C2.87819 9.90227 2.58245 10.2621 2.37903 10.6744C2.1756 11.0867 2.06996 11.5403 2.07031 12.0001C2.07031 12.9386 2.50531 13.8134 3.24318 14.3776C2.88719 15.238 2.94765 16.2132 3.41556 17.0234C3.88356 17.8338 4.69776 18.3742 5.62024 18.4965C5.74088 19.4169 6.2813 20.2306 7.09347 20.6995C7.5479 20.9627 8.06366 21.1015 8.58881 21.1019C8.9831 21.1014 9.37348 21.0238 9.73804 20.8736C10.0178 21.2381 10.3777 21.5334 10.79 21.7365C11.2022 21.9396 11.6556 22.0451 12.1152 22.0447C13.0533 22.0447 13.9281 21.6104 14.4927 20.8737C14.8572 21.0238 15.2476 21.1014 15.6419 21.1019C16.1654 21.1019 16.6829 20.9628 17.1386 20.6997C17.949 20.2316 18.4894 19.418 18.6117 18.4966C19.5332 18.3744 20.3468 17.834 20.8147 17.0235C21.045 16.6254 21.1806 16.1797 21.2108 15.7208C21.241 15.2619 21.1651 14.8022 20.989 14.3774C21.7257 13.8127 22.1599 12.9381 22.1599 12ZM12.1141 18.5756C8.48888 18.5756 5.53947 15.6253 5.53947 11.999C5.53947 8.37377 8.48884 5.42436 12.1141 5.42436C15.7404 5.42436 18.6907 8.37372 18.6907 11.999C18.6907 15.6253 15.7405 18.5756 12.1141 18.5756Z" fill="#212121"/>
  <path d="M1.96154 5.53849C2.21644 5.53849 2.42308 5.33186 2.42308 5.07696C2.42308 4.82206 2.21644 4.61542 1.96154 4.61542C1.70664 4.61542 1.5 4.82206 1.5 5.07696C1.5 5.33186 1.70664 5.53849 1.96154 5.53849Z" fill="#212121"/>
  <path d="M4.73107 2.30772C4.98597 2.30772 5.19261 2.10108 5.19261 1.84618C5.19261 1.59128 4.98597 1.38464 4.73107 1.38464C4.47617 1.38464 4.26953 1.59128 4.26953 1.84618C4.26953 2.10108 4.47617 2.30772 4.73107 2.30772Z" fill="#212121"/>
  <path d="M21.8072 19.3846C22.0621 19.3846 22.2688 19.178 22.2688 18.9231C22.2688 18.6682 22.0621 18.4615 21.8072 18.4615C21.5523 18.4615 21.3457 18.6682 21.3457 18.9231C21.3457 19.178 21.5523 19.3846 21.8072 19.3846Z" fill="#212121"/>
  <path d="M18.1158 22.6153C18.3707 22.6153 18.5774 22.4087 18.5774 22.1538C18.5774 21.8989 18.3707 21.6923 18.1158 21.6923C17.8609 21.6923 17.6543 21.8989 17.6543 22.1538C17.6543 22.4087 17.8609 22.6153 18.1158 22.6153Z" fill="#212121"/>
  <path d="M6.11584 22.6153C6.37074 22.6153 6.57737 22.4087 6.57737 22.1538C6.57737 21.8989 6.37074 21.6923 6.11584 21.6923C5.86093 21.6923 5.6543 21.8989 5.6543 22.1538C5.6543 22.4087 5.86093 22.6153 6.11584 22.6153Z" fill="#212121"/>
  <path d="M18.5769 2.30772C18.8318 2.30772 19.0385 2.10108 19.0385 1.84618C19.0385 1.59128 18.8318 1.38464 18.5769 1.38464C18.322 1.38464 18.1154 1.59128 18.1154 1.84618C18.1154 2.10108 18.322 2.30772 18.5769 2.30772Z" fill="#212121"/>
  <path d="M2.88431 18.6923C2.24808 18.6923 1.73047 19.2099 1.73047 19.8461C1.73047 20.4824 2.24808 21 2.88431 21C3.52055 21 4.03816 20.4824 4.03816 19.8461C4.03816 19.2099 3.52055 18.6923 2.88431 18.6923ZM21.1151 4.38459C21.8786 4.38459 22.4997 3.76345 22.4997 2.99997C22.4997 2.23649 21.8786 1.61536 21.1151 1.61536C20.3516 1.61536 19.7305 2.23649 19.7305 2.99997C19.7305 3.76345 20.3516 4.38459 21.1151 4.38459Z" fill="#212121"/>
</svg>