<svg xmlns="http://www.w3.org/2000/svg" width="24" height="24" viewBox="0 0 24 24" fill="none">
  <path d="M5.09001 3.5H11.32C12.236 3.5 12.8304 3.73186 13.2001 4.10714C13.5711 4.48381 13.8 5.0902 13.8 6.02V21.5H9.50001V18.25C9.50001 17.5495 8.93179 17 8.25001 17C7.56386 17 7.00001 17.5639 7.00001 18.25V21.5H2.60001V6.02C2.60001 5.09145 2.83075 4.48509 3.20407 4.10804C3.57648 3.73189 4.17398 3.5 5.09001 3.5ZM5.80001 13.25H10.75C11.4361 13.25 12 12.6861 12 12C12 11.3139 11.4361 10.75 10.75 10.75H5.80001C5.11386 10.75 4.55001 11.3139 4.55001 12C4.55001 12.6861 5.11386 13.25 5.80001 13.25ZM5.80001 9.5H10.75C11.4361 9.5 12 8.93614 12 8.25C12 7.56386 11.4361 7 10.75 7H5.80001C5.11386 7 4.55001 7.56386 4.55001 8.25C4.55001 8.93614 5.11386 9.5 5.80001 9.5Z" fill="#DC2626" stroke="#DC2626"/>
  <path d="M20.23 21.25V21.75H20.73H23C23.1339 21.75 23.25 21.8661 23.25 22C23.25 22.1339 23.1339 22.25 23 22.25H20.03C20.0125 22.25 19.9958 22.2508 19.98 22.2522C19.9642 22.2508 19.9475 22.25 19.93 22.25H1C0.866142 22.25 0.75 22.1339 0.75 22C0.75 21.8661 0.866142 21.75 1 21.75H19.22H19.72V21.25V18.24V17.8833L19.3827 17.7672C18.644 17.513 18.11 16.8156 18.11 16V14C18.11 12.9661 18.9561 12.12 19.99 12.12C21.0239 12.12 21.87 12.9661 21.87 14V16C21.87 16.8249 21.3276 17.529 20.5749 17.7747L20.23 17.8872V18.25V21.25Z" fill="#DC2626" stroke="#DC2626"/>
</svg>