<svg width="24" height="24" viewBox="0 0 24 24" fill="none" xmlns="http://www.w3.org/2000/svg">
<g clip-path="url(#clip0_761_41798)">
<path d="M18 5.21247V13.5637L17.9062 13.6237L15.1091 3.74997H16.5379C16.612 4.10995 16.79 4.44031 17.0499 4.70023C17.3097 4.96015 17.64 5.13824 18 5.21247ZM14.8965 2.99997H16.875C16.9745 2.99997 17.0698 3.03948 17.1402 3.1098C17.2105 3.18013 17.25 3.27551 17.25 3.37497C17.2503 3.67325 17.3689 3.95922 17.5798 4.17013C17.7907 4.38105 18.0767 4.49967 18.375 4.49997C18.4745 4.49997 18.5698 4.53948 18.6402 4.6098C18.7105 4.68013 18.75 4.77551 18.75 4.87497V13.0811L20.25 12.1162V3.37497C20.2498 2.87775 20.0522 2.40095 19.7006 2.04936C19.349 1.69778 18.8722 1.50017 18.375 1.49997H14.4338C14.4966 1.63156 14.5481 1.76831 14.5875 1.90872L14.8965 2.99997ZM4.33125 12.4912L6.23887 13.7175L4.17263 6.41772C4.15919 6.37032 4.15522 6.32074 4.16096 6.27181C4.16669 6.22287 4.18201 6.17555 4.20604 6.13254C4.23007 6.08953 4.26234 6.05168 4.301 6.02115C4.33967 5.99061 4.38397 5.968 4.43138 5.95459C4.71836 5.87311 4.96128 5.68108 5.10682 5.42066C5.25235 5.16024 5.28861 4.85272 5.20762 4.56559C5.19419 4.51819 5.19022 4.46861 5.19596 4.41968C5.20169 4.37075 5.21701 4.32343 5.24104 4.28042C5.26507 4.23741 5.29734 4.19955 5.336 4.16902C5.37467 4.13849 5.41897 4.11587 5.46637 4.10247L10.518 2.67297C10.5654 2.65953 10.615 2.65557 10.6639 2.6613C10.7128 2.66703 10.7602 2.68235 10.8032 2.70638C10.8462 2.73041 10.884 2.76268 10.9146 2.80134C10.9451 2.84001 10.9677 2.88431 10.9811 2.93172C11.0213 3.07391 11.089 3.2068 11.1806 3.32279C11.2721 3.43878 11.3856 3.53558 11.5145 3.60768C11.6435 3.67977 11.7854 3.72573 11.9322 3.74294C12.0789 3.76015 12.2276 3.74827 12.3698 3.70797C12.4171 3.69453 12.4667 3.69057 12.5157 3.6963C12.5646 3.70203 12.6119 3.71735 12.6549 3.74138C12.6979 3.76541 12.7358 3.79768 12.7663 3.83634C12.7969 3.87501 12.8195 3.91931 12.8329 3.96672L15.9259 14.8942L17.2425 14.0475L13.8675 2.11497C13.7318 1.63689 13.4119 1.23218 12.9782 0.989635C12.5444 0.74709 12.0321 0.686522 11.5538 0.821218L3.615 3.06747C3.13692 3.2032 2.73221 3.52304 2.48967 3.95681C2.24712 4.39058 2.18655 4.90285 2.32125 5.38122L4.33125 12.4912ZM10.6462 12.7687C11.1246 12.6333 11.5295 12.3136 11.7721 11.8797C12.0147 11.4458 12.0751 10.9333 11.94 10.455C11.8733 10.2179 11.7605 9.99636 11.6081 9.80298C11.4556 9.60959 11.2665 9.44819 11.0516 9.32801C10.8366 9.20783 10.6001 9.13123 10.3555 9.10261C10.1109 9.07399 9.86312 9.09391 9.62625 9.16122C9.15372 9.30154 8.75548 9.62233 8.51774 10.0541C8.28 10.4859 8.2219 10.994 8.35601 11.4683C8.49012 11.9426 8.80566 12.3451 9.2343 12.5884C9.66295 12.8318 10.1702 12.8966 10.6462 12.7687ZM5.76375 5.78622C5.9419 5.46499 6.02269 5.09884 5.99625 4.73247L10.3988 3.48747C10.5669 3.81437 10.8278 4.0844 11.1488 4.26372C11.47 4.44185 11.8361 4.52264 12.2025 4.49622L15.2662 15.3187L13.5413 16.4287L12.8925 16.0125C12.6252 15.8443 12.3158 15.7551 12 15.7551C11.6842 15.7551 11.3748 15.8443 11.1075 16.0125L10.4587 16.4287L7.1925 14.3287L4.9875 6.53997C5.31382 6.36924 5.5835 6.10737 5.76375 5.78622ZM7.6125 11.6812C7.75359 12.1813 8.03985 12.6283 8.43506 12.9657C8.83027 13.3031 9.31667 13.5156 9.83272 13.5765C10.3488 13.6374 10.8713 13.5438 11.3341 13.3076C11.797 13.0714 12.1794 12.7033 12.4329 12.2497C12.6865 11.7961 12.7998 11.2776 12.7585 10.7596C12.7173 10.2416 12.5233 9.74747 12.2012 9.33976C11.879 8.93204 11.4432 8.62904 10.9488 8.4691C10.4544 8.30915 9.92366 8.29945 9.42375 8.44122C9.09178 8.53454 8.78149 8.69246 8.51067 8.90594C8.23986 9.11942 8.01384 9.38424 7.84557 9.68524C7.67731 9.98624 7.5701 10.3175 7.53011 10.66C7.49011 11.0025 7.51811 11.3495 7.6125 11.6812ZM23.1626 11.1371L14.235 16.8746L22.9076 22.449C23.1301 22.135 23.2497 21.7598 23.25 21.375V11.694C23.2491 11.505 23.2196 11.3173 23.1626 11.1371ZM2.68875 9.42747L1.6125 10.1175C1.45833 10.2169 1.31938 10.3382 1.2 10.4775L3.3825 11.88L2.68875 9.42747ZM22.3875 10.1175L21 9.22497V11.6362L22.8 10.4775C22.6805 10.3383 22.5416 10.2171 22.3875 10.1175ZM11.5114 16.6436L1.66275 22.9762C1.95238 23.1539 2.28523 23.2486 2.625 23.25H21.375C21.7154 23.2484 22.0488 23.1532 22.3387 22.9747L12.4875 16.6428C12.3412 16.5512 12.172 16.5026 11.9993 16.5027C11.8267 16.5029 11.6575 16.5517 11.5114 16.6436ZM0.83775 11.1356C0.780487 11.3162 0.750901 11.5045 0.75 11.694V21.375C0.750404 21.7603 0.870429 22.1359 1.0935 22.4501L9.765 16.875L0.83775 11.1356Z" fill="url(#paint0_linear_761_41798)"/>
</g>
<defs>
<linearGradient id="paint0_linear_761_41798" x1="2.03165" y1="18.2502" x2="22.5411" y2="18.1204" gradientUnits="userSpaceOnUse">
<stop stop-color="#0575E6"/>
<stop offset="1" stop-color="#38E27B"/>
</linearGradient>
<clipPath id="clip0_761_41798">
<rect width="24" height="24" fill="white"/>
</clipPath>
</defs>
</svg>
