<svg width="24" height="24" viewBox="0 0 24 24" fill="none" xmlns="http://www.w3.org/2000/svg">
<g clip-path="url(#clip0_761_41807)">
<path d="M6.75106 8.58487V10.1227C5.75325 10.1227 4.8589 10.5607 4.24093 11.2509H13.0143C12.6991 10.8962 12.3123 10.6122 11.8794 10.4178C11.4465 10.2233 10.9774 10.1228 10.5028 10.1227V8.58345C10.8903 8.18338 11.1464 7.67456 11.237 7.125C11.8677 7.125 12.3765 6.61475 12.3765 5.99821C12.3756 5.84138 12.3417 5.68649 12.277 5.54363C12.2123 5.40077 12.1182 5.27314 12.0009 5.16906V3.7517C12.0011 3.35767 11.9237 2.96746 11.7731 2.60334C11.6225 2.23923 11.4016 1.90835 11.1231 1.62959C10.8446 1.35084 10.5139 1.12966 10.15 0.9787C9.78599 0.827737 9.39585 0.749942 9.00182 0.749756H8.25062C6.59516 0.749756 5.25009 2.09624 5.25009 3.7517V5.16906C5.13336 5.27346 5.03987 5.40121 4.97565 5.54404C4.91144 5.68688 4.87794 5.8416 4.87733 5.99821C4.8792 6.29844 5.00007 6.58567 5.21343 6.79691C5.42679 7.00814 5.71522 7.12613 6.01546 7.125C6.11184 7.68911 6.37121 8.1951 6.75106 8.58487ZM9.73459 4.6333L10.5028 5.40575V6.7494C10.5028 7.79399 9.67222 8.62597 8.62622 8.62597C8.37955 8.62729 8.13507 8.57963 7.90696 8.48576C7.67884 8.39188 7.47163 8.25366 7.29734 8.0791C7.12305 7.90455 6.98514 7.69713 6.89161 7.46888C6.79808 7.24062 6.75079 6.99607 6.75248 6.7494V5.62544H7.12666C8.50149 5.62544 9.47521 4.83173 9.73459 4.6333ZM9.75301 9.11779V10.1241C9.75301 10.1241 9.75301 10.8739 8.62622 10.8739C7.50084 10.8739 7.50226 10.1227 7.50226 10.1227V9.11921C7.8535 9.28768 8.23808 9.37514 8.62764 9.37514C9.01719 9.37514 9.40177 9.28626 9.75301 9.11779ZM3.00075 12.0007C2.70312 12.0022 2.4181 12.1211 2.20764 12.3315C1.99718 12.542 1.87828 12.827 1.87679 13.1246V19.4985H15.3771V13.1246C15.3752 12.8269 15.256 12.5419 15.0453 12.3314C14.8346 12.121 14.5494 12.0022 14.2517 12.0007H3.00075ZM17.6207 14.2458C17.5219 14.2476 17.4277 14.2884 17.3587 14.3593C17.2897 14.4301 17.2515 14.5253 17.2522 14.6242V16.1252C17.2409 16.6354 18.0147 16.6354 18.0034 16.1252V14.6242C18.004 14.574 17.9945 14.5242 17.9754 14.4777C17.9563 14.4312 17.9281 14.3891 17.8924 14.3538C17.8566 14.3185 17.8142 14.2907 17.7675 14.2722C17.7209 14.2536 17.6709 14.2446 17.6207 14.2458ZM19.1217 14.2458C19.0228 14.2476 18.9287 14.2884 18.8597 14.3593C18.7907 14.4301 18.7524 14.5253 18.7532 14.6242V16.1252C18.7532 16.6255 19.5044 16.6255 19.5044 16.1252V14.6242C19.505 14.574 19.4954 14.5242 19.4764 14.4777C19.4573 14.4312 19.429 14.3891 19.3933 14.3538C19.3576 14.3185 19.3152 14.2907 19.2685 14.2722C19.2218 14.2536 19.1719 14.2446 19.1217 14.2458ZM8.62622 15.0012C9.24277 15.0012 9.75301 15.5115 9.75301 16.128C9.75301 16.7446 9.24277 17.252 8.62622 17.252C8.00967 17.252 7.50226 16.7446 7.50226 16.128C7.50226 15.5115 8.00967 15.0012 8.62622 15.0012ZM16.5024 17.2491C16.4531 17.2493 16.4043 17.2592 16.3588 17.2783C16.3133 17.2973 16.272 17.3251 16.2373 17.3601C16.2025 17.3952 16.175 17.4367 16.1563 17.4823C16.1376 17.5279 16.1281 17.5768 16.1283 17.6262V19.8769C16.1283 20.2993 16.2757 20.6848 16.5124 20.9994H20.2428C20.4134 20.7788 20.5321 20.5225 20.5901 20.2497H21.0039C21.3013 20.2478 21.586 20.1287 21.7961 19.9183C22.0063 19.7079 22.125 19.4231 22.1265 19.1257V18.3745C22.1265 18.2754 22.0873 18.1803 22.0175 18.1099C21.9477 18.0396 21.8528 17.9997 21.7537 17.9989H20.6269V17.6262C20.6273 17.5268 20.5883 17.4313 20.5184 17.3606C20.4486 17.29 20.3535 17.2499 20.2542 17.2491H16.5024ZM20.6269 18.7487H21.3781V19.1257C21.3793 19.1751 21.3704 19.2242 21.352 19.2701C21.3336 19.3159 21.306 19.3575 21.271 19.3924C21.236 19.4273 21.1943 19.4547 21.1484 19.4729C21.1025 19.4911 21.0533 19.4998 21.0039 19.4985H20.6269V18.7487ZM1.87538 20.2511C1.87538 20.5232 1.95617 20.7783 2.08656 20.9994H15.1687C15.2977 20.7783 15.3771 20.5232 15.3771 20.2497L1.87538 20.2511ZM1.12702 21.7492C1.07769 21.749 1.02881 21.7586 0.983172 21.7773C0.937531 21.796 0.896021 21.8235 0.861012 21.8582C0.826002 21.893 0.79818 21.9343 0.779132 21.9798C0.760085 22.0253 0.750186 22.0741 0.75 22.1234V22.8746C0.75 23.083 0.918665 23.2516 1.12702 23.2502H22.8777C23.0846 23.2502 23.2519 23.0801 23.2504 22.8746V22.1234C23.2501 22.0245 23.2107 21.9298 23.1409 21.8597C23.0712 21.7897 22.9766 21.75 22.8777 21.7492H1.12702Z" fill="url(#paint0_linear_761_41807)"/>
</g>
<defs>
<linearGradient id="paint0_linear_761_41807" x1="2.03167" y1="18.2501" x2="22.5415" y2="18.1203" gradientUnits="userSpaceOnUse">
<stop stop-color="#0575E6"/>
<stop offset="1" stop-color="#38E27B"/>
</linearGradient>
<clipPath id="clip0_761_41807">
<rect width="24" height="24" fill="white"/>
</clipPath>
</defs>
</svg>
