<svg width="24" height="24" viewBox="0 0 24 24" fill="none" xmlns="http://www.w3.org/2000/svg">
<g clip-path="url(#clip0_761_41788)">
<path d="M14.293 10.3585H9.70685C9.29479 10.3585 8.96073 10.6926 8.96073 11.1046V23.7513C8.96073 23.8173 8.98693 23.8805 9.03357 23.9272C9.08021 23.9738 9.14347 24 9.20943 24H14.7904C14.8563 24 14.9196 23.9738 14.9663 23.9272C15.0129 23.8805 15.0391 23.8173 15.0391 23.7513V11.1046C15.0391 10.6926 14.705 10.3585 14.293 10.3585ZM21.8671 14.8476H17.2814C16.8694 14.8476 16.5353 15.1817 16.5353 15.5938V23.7513C16.5353 23.8173 16.5615 23.8805 16.6082 23.9272C16.6548 23.9738 16.7181 24 16.784 24H22.3645C22.4304 24 22.4937 23.9738 22.5403 23.9272C22.587 23.8805 22.6132 23.8173 22.6132 23.7513V15.5938C22.6132 15.1817 22.2791 14.8476 21.8671 14.8476ZM6.72238 18.1435H2.13674C1.72469 18.1435 1.39062 18.4776 1.39062 18.8896V23.7513C1.39062 23.8173 1.41683 23.8805 1.46347 23.9272C1.51011 23.9738 1.57337 24 1.63933 24H7.21979C7.28575 24 7.34901 23.9738 7.39565 23.9272C7.44229 23.8805 7.46849 23.8173 7.46849 23.7513V18.8896C7.46849 18.4776 7.13443 18.1435 6.72238 18.1435ZM15.2712 2.29616L13.6239 1.83332C13.5087 1.80094 13.409 1.72813 13.3432 1.62824L12.4172 0.223649C12.2206 -0.0745495 11.7832 -0.0745495 11.5866 0.223649L10.6607 1.62824C10.5948 1.72816 10.4952 1.80098 10.3799 1.83332L8.73262 2.29616C8.38677 2.39336 8.2548 2.81382 8.48316 3.09118L9.54384 4.37952C9.6228 4.47542 9.66301 4.59739 9.65656 4.72144L9.56777 6.43448C9.54902 6.79649 9.91138 7.05634 10.2482 6.92244L11.8182 6.29838C11.9362 6.25148 12.0677 6.25148 12.1856 6.29838L13.7556 6.92244C14.0925 7.05634 14.4548 6.79649 14.4361 6.43448L14.3473 4.72144C14.3409 4.59739 14.3811 4.47543 14.46 4.37952L15.5207 3.09118C15.7491 2.81382 15.6171 2.39331 15.2712 2.29616ZM4.25323 7.22461L6.04003 6.38001C6.41259 6.20393 6.57181 5.75914 6.39573 5.38663C6.21959 5.01407 5.77481 4.8548 5.40235 5.03093L3.61555 5.87554C3.24299 6.05162 3.08376 6.4964 3.25985 6.86892C3.43608 7.24172 3.88101 7.4006 4.25323 7.22461ZM18.603 2.6534L20.3535 1.82089C20.7256 1.64391 20.8838 1.19877 20.7069 0.82666C20.5298 0.454597 20.0847 0.296221 19.7126 0.473299L17.9622 1.30582C17.5901 1.4828 17.4318 1.92793 17.6088 2.30004C17.786 2.6725 18.2313 2.83023 18.603 2.6534ZM3.61555 1.82163L5.40235 2.66624C5.50184 2.71344 5.61057 2.73794 5.72069 2.73796C6.00029 2.73796 6.26834 2.58009 6.39573 2.31054C6.57186 1.93803 6.41259 1.49324 6.04003 1.31716L4.25323 0.472553C3.88067 0.29642 3.43593 0.455691 3.25985 0.828252C3.08376 1.20076 3.24299 1.64555 3.61555 1.82163ZM17.9621 6.39135L19.7126 7.22382C20.0848 7.40085 20.5299 7.24252 20.7068 6.87046C20.8838 6.49834 20.7256 6.05316 20.3534 5.87623L18.603 5.04376C18.2308 4.86674 17.7857 5.02501 17.6088 5.39712C17.4318 5.76924 17.59 6.21442 17.9621 6.39135Z" fill="url(#paint0_linear_761_41788)"/>
</g>
<defs>
<linearGradient id="paint0_linear_761_41788" x1="2.5995" y1="18.6667" x2="21.9447" y2="18.5584" gradientUnits="userSpaceOnUse">
<stop stop-color="#0575E6"/>
<stop offset="1" stop-color="#38E27B"/>
</linearGradient>
<clipPath id="clip0_761_41788">
<rect width="24" height="24" fill="white"/>
</clipPath>
</defs>
</svg>
