<svg width="24" height="24" viewBox="0 0 24 24" fill="none" xmlns="http://www.w3.org/2000/svg">
<path d="M2.5 12C2.5 6.75614 6.75614 2.5 12 2.5C17.2439 2.5 21.5 6.75614 21.5 12C21.5 17.2439 17.2439 21.5 12 21.5C6.75614 21.5 2.5 17.2439 2.5 12ZM15 12.75C15.3155 12.75 15.6348 12.6323 15.8836 12.3836C16.3688 11.8983 16.3688 11.1017 15.8836 10.6164L12.8836 7.61645C12.3983 7.13118 11.6017 7.13118 11.1164 7.61645L8.11645 10.6164C7.63118 11.1017 7.63118 11.8983 8.11645 12.3836C8.60171 12.8688 9.39829 12.8688 9.88355 12.3836L10.75 11.5171V15.5C10.75 16.1861 11.3139 16.75 12 16.75C12.6861 16.75 13.25 16.1861 13.25 15.5V11.5171L14.1164 12.3836C14.3652 12.6323 14.6845 12.75 15 12.75Z" fill="url(#paint0_linear_1675_60221)" stroke="url(#paint1_linear_1675_60221)"/>
<defs>
<linearGradient id="paint0_linear_1675_60221" x1="3.13924" y1="17.5556" x2="21.3699" y2="17.4402" gradientUnits="userSpaceOnUse">
<stop stop-color="#0575E6"/>
<stop offset="1" stop-color="#38E27B"/>
</linearGradient>
<linearGradient id="paint1_linear_1675_60221" x1="3.13924" y1="17.5556" x2="21.3699" y2="17.4402" gradientUnits="userSpaceOnUse">
<stop stop-color="#0575E6"/>
<stop offset="1" stop-color="#38E27B"/>
</linearGradient>
</defs>
</svg>
