<svg width="178" height="38" viewBox="0 0 178 38" fill="none" xmlns="http://www.w3.org/2000/svg">
<path d="M62.7345 21.8164L61.6752 24.8113H61.5869C61.4104 24.136 61.0867 23.1083 60.557 21.8751L54.8779 7.63447H49.3164V30.3314H52.9946V16.3257C52.9946 15.4448 52.9946 14.4465 52.9652 13.2133C52.9358 12.5967 52.8769 12.1269 52.8475 11.7745H52.9358C53.1123 12.6554 53.3183 13.3014 53.4654 13.7124L60.2922 30.2727H62.8817L69.6496 13.5656C69.7967 13.1839 69.9439 12.4205 70.091 11.7745H70.1793C70.091 13.4482 70.0321 14.9457 70.0027 15.8559V30.2433H73.9163V7.57574H68.5608L62.7345 21.8164ZM77.624 13.9767H81.4493V30.2433H77.624V13.9767ZM79.5661 7.10595C78.9187 7.10595 78.389 7.34085 77.9477 7.75192C77.5063 8.16299 77.2709 8.69151 77.2709 9.33747C77.2709 9.95408 77.5063 10.4826 77.9477 10.8937C78.389 11.3047 78.9187 11.5103 79.5661 11.5103C80.2134 11.5103 80.7725 11.2754 81.1845 10.8937C81.6259 10.4826 81.8613 9.95408 81.8613 9.33747C81.8613 8.72087 81.6259 8.19235 81.1845 7.75192C80.802 7.34085 80.2429 7.10595 79.5661 7.10595ZM95.0146 13.8299C94.3084 13.6831 93.5727 13.595 92.8665 13.595C91.1304 13.595 89.5414 13.9767 88.2172 14.7401C86.8931 15.5035 85.8338 16.5606 85.157 17.8819C84.4507 19.2325 84.0976 20.7887 84.0976 22.5798C84.0976 24.136 84.4507 25.516 85.1275 26.7786C85.8043 28.0118 86.746 29.0101 88.0113 29.6855C89.2177 30.3608 90.6301 30.7131 92.2191 30.7131C94.0435 30.7131 95.6031 30.3314 96.839 29.6267L96.8684 29.5974V26.0739L96.7213 26.1914C96.1622 26.6024 95.5148 26.9548 94.8675 27.1603C94.1907 27.3952 93.5727 27.5127 93.0431 27.5127C91.5129 27.5127 90.3065 27.0722 89.4531 26.1033C88.5704 25.1637 88.129 23.8718 88.129 22.2568C88.129 20.5832 88.5704 19.2619 89.4826 18.2929C90.3947 17.324 91.6012 16.8248 93.0725 16.8248C94.3084 16.8248 95.5737 17.2359 96.7213 18.058L96.8684 18.1755V14.4465L96.839 14.4171C96.3387 14.2116 95.7797 13.9767 95.0146 13.8299ZM107.638 13.7124C106.697 13.7124 105.814 14.0061 105.049 14.6227C104.401 15.1512 103.96 15.9146 103.577 16.8248H103.548V13.9767H99.7227V30.2433H103.548V21.9338C103.548 20.5245 103.842 19.35 104.49 18.4985C105.137 17.6176 105.961 17.1772 106.961 17.1772C107.315 17.1772 107.668 17.2653 108.109 17.324C108.521 17.4414 108.815 17.5589 109.021 17.7057L109.168 17.8231V14.0061L109.08 13.9767C108.815 13.8005 108.286 13.7124 107.638 13.7124ZM118.055 13.6244C115.377 13.6244 113.229 14.4171 111.728 15.9733C110.198 17.5295 109.463 19.673 109.463 22.3743C109.463 24.8994 110.228 26.9548 111.699 28.4523C113.17 29.9204 115.171 30.6838 117.672 30.6838C120.291 30.6838 122.381 29.891 123.881 28.3054C125.411 26.7199 126.147 24.6058 126.147 21.9926C126.147 19.4087 125.441 17.3533 123.999 15.8559C122.616 14.3584 120.586 13.6244 118.055 13.6244ZM121.115 26.1326C120.409 27.0429 119.291 27.4833 117.908 27.4833C116.525 27.4833 115.407 27.0429 114.612 26.0739C113.818 25.1637 113.435 23.8424 113.435 22.1687C113.435 20.4364 113.847 19.1151 114.612 18.1755C115.407 17.2359 116.495 16.7661 117.878 16.7661C119.232 16.7661 120.291 17.2065 121.056 18.1168C121.821 19.027 122.233 20.3483 122.233 22.0807C122.175 23.8424 121.851 25.2224 121.115 26.1326ZM134.68 20.73C133.474 20.2308 132.709 19.8491 132.356 19.5261C132.062 19.2325 131.914 18.8215 131.914 18.2929C131.914 17.8525 132.091 17.4121 132.532 17.1184C132.974 16.8248 133.474 16.678 134.21 16.678C134.857 16.678 135.534 16.7955 136.181 16.9716C136.829 17.1478 137.417 17.4121 137.888 17.7644L138.035 17.8819V14.2997L137.947 14.2703C137.505 14.0941 136.917 13.918 136.211 13.7712C135.504 13.6537 134.857 13.595 134.327 13.595C132.503 13.595 131.002 14.0354 129.825 15.0044C128.648 15.9146 128.089 17.1478 128.089 18.5866C128.089 19.35 128.207 20.0253 128.472 20.5832C128.736 21.1411 129.119 21.6696 129.649 22.11C130.178 22.5211 130.943 22.9909 132.003 23.4313C132.886 23.813 133.562 24.1066 133.974 24.3415C134.386 24.5764 134.651 24.8407 134.857 25.0462C135.004 25.2811 135.092 25.5748 135.092 25.9565C135.092 27.0429 134.269 27.5714 132.591 27.5714C131.944 27.5714 131.267 27.4539 130.473 27.1897C129.678 26.9254 128.942 26.5437 128.325 26.1033L128.177 25.9858V29.7148L128.266 29.7442C128.825 30.0084 129.502 30.1846 130.325 30.3902C131.149 30.537 131.885 30.6544 132.532 30.6544C134.504 30.6544 136.122 30.214 137.27 29.245C138.447 28.3054 139.065 27.1016 139.065 25.5454C139.065 24.459 138.771 23.49 138.123 22.756C137.27 22.0513 136.211 21.3172 134.68 20.73ZM149.158 13.6244C146.48 13.6244 144.332 14.4171 142.831 15.9733C141.331 17.5295 140.566 19.673 140.566 22.3743C140.566 24.8994 141.331 26.9548 142.802 28.4523C144.273 29.9204 146.274 30.6838 148.775 30.6838C151.394 30.6838 153.484 29.891 154.984 28.3054C156.514 26.7199 157.25 24.6058 157.25 21.9926C157.25 19.4087 156.544 17.3533 155.102 15.8559C153.719 14.3584 151.689 13.6244 149.158 13.6244ZM152.189 26.1326C151.483 27.0429 150.364 27.4833 148.981 27.4833C147.569 27.4833 146.48 27.0429 145.686 26.0739C144.891 25.1637 144.509 23.8424 144.509 22.1687C144.509 20.4364 144.921 19.1151 145.686 18.1755C146.48 17.2359 147.569 16.7661 148.952 16.7661C150.276 16.7661 151.365 17.2065 152.13 18.1168C152.895 19.027 153.307 20.3483 153.307 22.0807C153.307 23.8424 152.924 25.2224 152.189 26.1326ZM177.701 17.1184V13.9767H173.846V9.1613L173.728 9.19066L170.08 10.2771L169.991 10.3064V13.9767H164.224V11.9213C164.224 10.9818 164.459 10.2477 164.871 9.77791C165.283 9.30811 165.901 9.07321 166.666 9.07321C167.196 9.07321 167.755 9.19066 168.373 9.45492L168.52 9.54301V6.22508L168.432 6.19572C167.902 6.01955 167.196 5.9021 166.284 5.9021C165.136 5.9021 164.136 6.16636 163.223 6.60679C162.311 7.10595 161.634 7.78128 161.134 8.69151C160.634 9.57237 160.369 10.5707 160.369 11.7158V13.9767H157.691V17.0891H160.369V30.2433H164.224V17.1184H169.991V25.4867C169.991 28.922 171.61 30.6544 174.847 30.6544C175.376 30.6544 175.935 30.5663 176.465 30.4782C177.024 30.3608 177.436 30.214 177.672 30.0965L177.701 30.0672V26.9254L177.554 27.0429C177.318 27.1897 177.112 27.3071 176.759 27.3952C176.465 27.4833 176.2 27.5127 175.994 27.5127C175.229 27.5127 174.7 27.3365 174.317 26.8961C173.964 26.485 173.787 25.8097 173.787 24.8113V17.1184H177.701Z" fill="#737373"/>
<path d="M0 6.10352e-05H18.038V17.9991H0V6.10352e-05Z" fill="#F25022"/>
<path d="M19.9219 0H37.9599V17.999H19.9219V0Z" fill="#7FBA00"/>
<path d="M0 19.8782H18.038V37.8773H0V19.8782Z" fill="#00A4EF"/>
<path d="M19.9219 19.8782H37.9599V37.8772H19.9219V19.8782Z" fill="#FFB900"/>
</svg>
