<svg width="122" height="40" viewBox="0 0 122 40" fill="none" xmlns="http://www.w3.org/2000/svg">
<path d="M51.915 20.7101C51.915 26.3721 47.4205 30.5443 41.9048 30.5443C36.389 30.5443 31.8945 26.3721 31.8945 20.7101C31.8945 15.0083 36.389 10.876 41.9048 10.876C47.4205 10.876 51.915 15.0083 51.915 20.7101ZM47.533 20.7101C47.533 17.172 44.9281 14.7511 41.9048 14.7511C38.8815 14.7511 36.2765 17.172 36.2765 20.7101C36.2765 24.2128 38.8815 26.6691 41.9048 26.6691C44.9281 26.6691 47.533 24.2084 47.533 20.7101Z" fill="#EA4335"/>
<path d="M73.509 20.7101C73.509 26.3721 69.0145 30.5443 63.4988 30.5443C57.983 30.5443 53.4885 26.3721 53.4885 20.7101C53.4885 15.0127 57.983 10.876 63.4988 10.876C69.0145 10.876 73.509 15.0083 73.509 20.7101ZM69.127 20.7101C69.127 17.172 66.5221 14.7511 63.4988 14.7511C60.4755 14.7511 57.8705 17.172 57.8705 20.7101C57.8705 24.2128 60.4755 26.6691 63.4988 26.6691C66.5221 26.6691 69.127 24.2084 69.127 20.7101Z" fill="#FBBC05"/>
<path d="M94.2039 11.4701V29.1254C94.2039 36.388 89.8579 39.3542 84.7201 39.3542C79.8836 39.3542 76.9728 36.1663 75.875 33.5592L79.6902 31.9941C80.3695 33.5947 82.0342 35.4835 84.7156 35.4835C88.0043 35.4835 90.0424 33.4839 90.0424 29.7196V28.3052H89.8894C88.9086 29.4979 87.019 30.5398 84.6346 30.5398C79.6452 30.5398 75.0742 26.2568 75.0742 20.7456C75.0742 15.1945 79.6452 10.876 84.6346 10.876C87.0145 10.876 88.9041 11.9179 89.8894 13.0751H90.0424V11.4745H94.2039V11.4701ZM90.3528 20.7456C90.3528 17.2828 88.0088 14.7511 85.026 14.7511C82.0027 14.7511 79.4697 17.2828 79.4697 20.7456C79.4697 24.1729 82.0027 26.6691 85.026 26.6691C88.0088 26.6691 90.3528 24.1729 90.3528 20.7456Z" fill="#4285F4"/>
<path d="M101.065 1.12158V29.9412H96.791V1.12158H101.065Z" fill="#34A853"/>
<path d="M117.721 23.9468L121.123 26.1814C120.025 27.782 117.38 30.5399 112.809 30.5399C107.14 30.5399 102.906 26.2214 102.906 20.7057C102.906 14.8576 107.176 10.8716 112.318 10.8716C117.496 10.8716 120.029 14.9329 120.857 17.1277L121.312 18.245L107.972 23.6897C108.993 25.6627 110.582 26.6692 112.809 26.6692C115.04 26.6692 116.588 25.5873 117.721 23.9468ZM107.252 20.4087L116.169 16.7597C115.679 15.5315 114.203 14.6758 112.467 14.6758C110.24 14.6758 107.14 16.6133 107.252 20.4087Z" fill="#EA4335"/>
<path d="M15.715 18.1519V13.9797H29.9813C30.1207 14.7069 30.1927 15.567 30.1927 16.4981C30.1927 19.6284 29.3244 23.4991 26.526 26.2569C23.8042 29.0502 20.3264 30.5399 15.7195 30.5399C7.18039 30.5399 0 23.6853 0 15.27C0 6.85463 7.18039 0 15.7195 0C20.4434 0 23.8087 1.82672 26.3371 4.20766L23.3498 7.1517C21.5367 5.47573 19.0802 4.17219 15.715 4.17219C9.47937 4.17219 4.60247 9.12473 4.60247 15.27C4.60247 21.4152 9.47937 26.3677 15.715 26.3677C19.7596 26.3677 22.063 24.7671 23.5387 23.3129C24.7354 22.1335 25.5228 20.4486 25.8332 18.1475L15.715 18.1519Z" fill="#4285F4"/>
</svg>
