<svg width="117" height="36" viewBox="0 0 117 36" fill="none" xmlns="http://www.w3.org/2000/svg">
<path d="M86.668 33.9173L96.3873 23.1525L86.668 12.3862H96.9229L101.737 17.6158L106.372 12.3862H116.269L106.596 23.1081L116.402 33.9173H106.105L101.335 28.6448L96.6098 33.9173H86.668Z" fill="#FF6600"/>
<path d="M86.6671 7.55963H75.6591V12.3861H86.6671V19.66H75.6591V26.3366H86.6671V33.9172H67.5684V0H86.6671V7.55963Z" fill="#FF6600"/>
<path d="M59.5121 0V13.8805H59.4234C57.6397 11.8596 55.4112 11.1574 52.8254 11.1574C47.5287 11.1574 43.5388 14.7067 42.1382 19.3993C40.541 14.2287 36.4219 11.0605 30.3139 11.0605C25.3537 11.0605 21.4367 13.2552 19.3926 16.8315V12.3866H9.13968V7.56062H20.3285V0H0V33.9177H9.13968V19.66H18.2495C17.9779 20.7074 17.8329 21.8288 17.8329 23.012C17.8329 30.0872 23.3161 35.0515 30.3139 35.0515C36.1985 35.0515 40.0764 32.3283 42.1276 27.3635H34.2952C33.2357 28.8549 32.432 29.298 30.3139 29.298C27.8579 29.298 25.7403 27.1857 25.7403 24.6818H41.6888C42.3804 30.3014 46.8213 35.1479 52.9156 35.1479C55.5445 35.1479 57.9514 33.8732 59.4234 31.721H59.5121V33.9167H67.5689V0H59.5121ZM25.9947 19.7614C26.5029 17.6072 28.1979 16.1991 30.3139 16.1991C32.6433 16.1991 34.2521 17.5637 34.6753 19.7614C34.8536 19.7614 25.9947 19.7614 25.9947 19.7614ZM54.6227 28.753C51.6529 28.753 49.8074 26.0254 49.8074 23.1774C49.8074 20.133 51.4127 17.2056 54.6227 17.2056C57.9514 17.2056 59.2775 20.133 59.2775 23.1774C59.277 26.0643 57.8718 28.753 54.6227 28.753Z" fill="#652C8F"/>
</svg>
