<svg width="123" height="35" viewBox="0 0 123 35" fill="none" xmlns="http://www.w3.org/2000/svg">
<path d="M13.2523 5.78955V15.6518H4.26623V5.78955H0V29.3318H4.26623V19.7897H13.2523V29.3318H17.5185V5.78955H13.2523Z" fill="#33475B"/>
<path d="M31.1727 21.7217C31.1727 22.6652 30.8009 23.57 30.139 24.2372C29.4771 24.9043 28.5794 25.2791 27.6433 25.2791C26.7072 25.2791 25.8095 24.9043 25.1476 24.2372C24.4857 23.57 24.1139 22.6652 24.1139 21.7217V11.6382H20.0671V21.7217C20.0671 23.745 20.8646 25.6855 22.284 27.1162C23.7034 28.5469 25.6286 29.3507 27.636 29.3507C29.6434 29.3507 31.5685 28.5469 32.988 27.1162C34.4074 25.6855 35.2048 23.745 35.2048 21.7217V11.6382H31.1727V21.7217Z" fill="#33475B"/>
<path d="M61.1559 12.6769C61.1559 10.6101 62.5125 9.95484 63.9987 9.95484C65.1964 9.95484 66.7787 10.8734 67.8134 11.988L70.4639 8.84031C69.1407 7.03682 66.4568 5.78955 64.26 5.78955C59.8704 5.78955 56.6953 8.38101 56.6953 12.6769C56.6953 20.6472 66.3607 18.119 66.3607 22.5792C66.3607 23.955 65.0355 25.1707 63.5179 25.1707C61.1246 25.1707 60.3491 23.9908 59.2496 22.7436L56.3086 25.8259C58.1898 28.154 60.51 29.336 63.2901 29.336C67.4602 29.336 70.815 26.7129 70.815 22.6129C70.815 13.7641 61.1497 16.5135 61.1497 12.6769" fill="#33475B"/>
<path d="M120.949 25.5708C118.558 25.5708 117.879 24.5279 117.879 22.9309V15.8623H121.595V12.2806H117.879V7.55493L113.775 9.41109V23.8095C113.775 27.4923 116.296 29.3484 119.754 29.3484C120.296 29.3584 120.838 29.3146 121.371 29.2178L122.373 25.5034C121.921 25.535 121.403 25.5666 120.949 25.5666" fill="#33475B"/>
<path d="M46.576 11.7567C44.5714 11.7567 43.173 12.3424 41.8206 13.6802V5.93115H37.7676V20.2937C37.7676 25.6705 41.6241 29.3533 45.9572 29.3533C50.7649 29.3533 54.9935 25.6051 54.9935 20.5571C54.9935 15.5722 51.1014 11.7588 46.576 11.7588V11.7567ZM46.5509 25.2428C45.6414 25.2428 44.7523 24.9709 43.996 24.4616C43.2398 23.9523 42.6504 23.2284 42.3023 22.3814C41.9543 21.5345 41.8632 20.6025 42.0407 19.7034C42.2181 18.8042 42.6561 17.9783 43.2992 17.3301C43.9423 16.6819 44.7617 16.2404 45.6537 16.0616C46.5458 15.8827 47.4704 15.9745 48.3107 16.3253C49.151 16.6762 49.8692 17.2703 50.3745 18.0325C50.8798 18.7947 51.1495 19.6909 51.1495 20.6076C51.1495 21.8369 50.665 23.0159 49.8026 23.8852C48.9402 24.7544 47.7705 25.2428 46.5509 25.2428Z" fill="#33475B"/>
<path d="M90.5845 20.3421C90.5845 15.2856 86.3643 11.5459 81.5483 11.5459C77.2152 11.5459 73.3586 15.2287 73.3586 20.6055V34.9764H77.4117V27.2168C78.762 28.5526 80.1624 29.1404 82.1649 29.1404C86.6903 29.1404 90.5824 25.3291 90.5824 20.3421H90.5845ZM86.7468 20.2915C86.7468 21.2083 86.4771 22.1044 85.9718 22.8667C85.4665 23.6289 84.7483 24.223 83.908 24.5738C83.0677 24.9246 82.1431 25.0164 81.2511 24.8376C80.359 24.6587 79.5396 24.2173 78.8965 23.5691C78.2534 22.9208 77.8154 22.0949 77.638 21.1958C77.4605 20.2967 77.5516 19.3647 77.8997 18.5177C78.2477 17.6708 78.8371 16.9469 79.5934 16.4376C80.3496 15.9283 81.2387 15.6564 82.1482 15.6564C83.3678 15.6564 84.5375 16.1447 85.3999 17.014C86.2623 17.8833 86.7468 19.0622 86.7468 20.2915Z" fill="#33475B"/>
<path d="M103.677 11.3476V7.24343C104.216 6.99 104.671 6.58773 104.991 6.08344C105.311 5.57916 105.483 4.9936 105.486 4.39494V4.30013C105.486 3.46196 105.155 2.65812 104.567 2.06545C103.979 1.47278 103.182 1.13982 102.35 1.13982H102.256C101.425 1.13982 100.627 1.47278 100.039 2.06545C99.451 2.65812 99.1207 3.46196 99.1207 4.30013V4.39494C99.1235 4.9936 99.2949 5.57916 99.615 6.08344C99.9351 6.58773 100.391 6.99 100.929 7.24343V11.3476C99.3822 11.5861 97.9256 12.2323 96.7065 13.2206L85.5403 4.45393C85.6193 4.16484 85.6614 3.86677 85.6657 3.56694C85.6669 2.86263 85.4609 2.17376 85.0737 1.58748C84.6865 1.0012 84.1354 0.543846 83.4903 0.273259C82.8452 0.0026716 82.1349 -0.0689883 81.4494 0.0673431C80.7638 0.203674 80.1338 0.541873 79.6389 1.03916C79.1441 1.53645 78.8067 2.17048 78.6694 2.86107C78.5322 3.55165 78.6011 4.26777 78.8677 4.91882C79.1342 5.56988 79.5864 6.12664 80.1669 6.51867C80.7474 6.9107 81.4302 7.1204 82.129 7.12123C82.74 7.11848 83.3396 6.9543 83.8681 6.64508L94.8649 15.2685C93.8768 16.7728 93.3613 18.5422 93.3855 20.3461C93.4097 22.1501 93.9726 23.9048 95.0008 25.3815L91.6564 28.7525C91.3859 28.6655 91.1042 28.6193 90.8203 28.6156C90.2466 28.616 89.686 28.7878 89.2092 29.1093C88.7324 29.4308 88.3609 29.8875 88.1415 30.4218C87.9222 30.956 87.8649 31.5439 87.9769 32.1109C88.0889 32.678 88.3652 33.1989 88.7708 33.6077C89.1765 34.0166 89.6932 34.295 90.2558 34.408C90.8184 34.5209 91.4016 34.4631 91.9317 34.242C92.4617 34.021 92.9149 33.6465 93.2338 33.1659C93.5528 32.6853 93.7232 32.1202 93.7237 31.542C93.7201 31.2559 93.6743 30.9718 93.5878 30.6993L96.8967 27.3641C97.9756 28.201 99.2303 28.7778 100.565 29.0505C101.899 29.3232 103.277 29.2845 104.595 28.9373C105.912 28.5901 107.133 27.9437 108.164 27.0475C109.195 26.1513 110.008 25.0292 110.543 23.767C111.077 22.5049 111.318 21.1362 111.246 19.7658C111.175 18.3955 110.793 17.0598 110.131 15.861C109.468 14.6623 108.542 13.6323 107.423 12.85C106.305 12.0677 105.023 11.5538 103.677 11.3476ZM102.306 24.8443C101.401 24.8434 100.517 24.5722 99.7644 24.0647C99.0122 23.5573 98.4261 22.8366 98.0802 21.9935C97.7343 21.1504 97.6442 20.2229 97.8211 19.3282C97.998 18.4335 98.4341 17.6118 99.0743 16.9668C99.7144 16.3219 100.53 15.8827 101.418 15.7048C102.305 15.5268 103.226 15.6181 104.062 15.9672C104.898 16.3162 105.613 16.9073 106.116 17.6657C106.619 18.4241 106.888 19.3158 106.888 20.2281C106.888 21.4518 106.406 22.6254 105.547 23.4907C104.689 24.356 103.525 24.8421 102.31 24.8421" fill="#FF7A59"/>
</svg>
