<svg width="161" height="50" viewBox="0 0 161 50" fill="none" xmlns="http://www.w3.org/2000/svg">
<path d="M46.3343 35.4472C46.081 34.8382 45.8435 34.198 45.5901 33.6515L44.4183 31.0439L44.3708 30.997C40.8871 23.5021 37.1659 15.8822 33.223 8.38723L33.0646 8.07494C32.6687 7.34105 32.2729 6.5291 31.8612 5.7796C31.3544 4.88957 30.8635 3.93709 30.056 3.03145C29.2688 2.08385 28.2781 1.32039 27.1553 0.796159C26.0326 0.271927 24.8058 0 23.5636 0C22.3214 0 21.0946 0.271927 19.9719 0.796159C18.8492 1.32039 17.8585 2.08385 17.0713 3.03145C16.327 3.93709 15.7728 4.88957 15.2661 5.7796C14.8702 6.59156 14.4743 7.3879 14.0626 8.12178L13.9043 8.43407C10.0247 15.929 6.24012 23.5489 2.75642 31.0439L2.66141 31.1376C2.31304 31.9495 1.90133 32.7927 1.50545 33.6984C1.25209 34.2449 0.998731 34.8382 0.745371 35.494C0.0613504 37.2113 -0.157079 39.0747 0.11161 40.9005C0.380299 42.7264 1.12683 44.4517 2.27764 45.9064C3.42844 47.3611 4.94379 48.4951 6.67435 49.1965C8.40491 49.8978 10.2909 50.1425 12.1466 49.9062C13.9256 49.6753 15.6386 49.091 17.1821 48.1886C19.2407 47.0488 21.22 45.3936 23.4369 43.0046C25.6538 45.3936 27.6807 47.0488 29.6918 48.2042C31.6257 49.3236 33.8158 49.9413 36.0574 49.9999C38.6533 50.0105 41.1655 49.0947 43.1301 47.4215C45.0947 45.7483 46.3791 43.4307 46.7461 40.8966C47.1702 39.0756 47.0267 37.1708 46.3343 35.4316V35.4472ZM23.5953 38.0392C20.8717 34.604 19.0981 31.4499 18.4964 28.7486C18.2471 27.7476 18.1934 26.7089 18.3381 25.6881C18.4489 24.8918 18.7498 24.1891 19.1615 23.5958C20.1116 22.2373 21.7743 21.3941 23.5953 21.3941C24.4601 21.3681 25.3179 21.5542 26.0918 21.9357C26.8657 22.3173 27.5313 22.8823 28.0291 23.5801C28.4408 24.2047 28.7417 24.8918 28.8367 25.6881C28.995 26.5938 28.9317 27.6399 28.6783 28.7486C28.0766 31.403 26.3031 34.5884 23.5953 38.0392ZM43.7691 40.3501C43.5892 41.6367 43.0705 42.8543 42.2648 43.8817C41.4591 44.909 40.3944 45.7103 39.1769 46.2056C37.9735 46.7052 36.6433 46.8458 35.3448 46.7052C34.078 46.5491 32.8112 46.1431 31.5128 45.3936C29.3569 44.0797 27.4182 42.4472 25.7647 40.5531C29.09 36.4934 31.1011 32.7927 31.8612 29.4981C32.2254 27.9366 32.2729 26.5313 32.1145 25.2353C31.9168 24.0069 31.4522 22.8351 30.7527 21.8001C29.954 20.6778 28.8879 19.7662 27.6481 19.1454C26.4084 18.5247 25.033 18.2137 23.6428 18.24C20.7133 18.24 18.1005 19.5828 16.517 21.7845C15.8042 22.8169 15.3435 23.998 15.1711 25.2353C14.9652 26.5469 15.0127 27.9991 15.4244 29.4981C16.1845 32.7927 18.243 36.5402 21.5209 40.5844C19.8954 42.5146 17.9523 44.1614 15.7728 45.4561C14.4585 46.2056 13.2075 46.5959 11.9407 46.7521C9.97066 47.0009 7.98062 46.473 6.40315 45.2829C4.82569 44.0929 3.78831 42.3371 3.5165 40.397C3.35815 39.1478 3.46899 37.8987 3.97571 36.4934C4.13406 35.9937 4.37159 35.494 4.62495 34.9007C4.97332 34.0887 5.38503 33.2455 5.7809 32.4023L5.84424 32.293C9.2646 24.8449 13.0017 17.2407 16.8812 9.79253L17.0396 9.48024C17.4355 8.73075 17.8313 7.9344 18.243 7.18491C18.6548 6.38857 19.0981 5.62346 19.6682 4.99888C20.1616 4.41805 20.7782 3.95094 21.4745 3.63045C22.1707 3.30995 22.9298 3.14385 23.6982 3.14385C24.4666 3.14385 25.2257 3.30995 25.9219 3.63045C26.6182 3.95094 27.2348 4.41805 27.7282 4.99888C28.2824 5.62346 28.7417 6.38857 29.1534 7.18491C29.5492 7.9344 29.9451 8.74636 30.3568 9.48024L30.5152 9.79253C34.3789 17.2407 38.116 24.8449 41.5997 32.293L41.6472 32.3399C42.0589 33.1518 42.4073 34.0575 42.8031 34.8382C43.0565 35.4472 43.3099 35.9312 43.4682 36.4465C43.7691 37.8518 43.9274 39.101 43.7691 40.3501ZM65.8114 37.6957C64.6182 37.7129 63.4363 37.465 62.3535 36.9703C61.2707 36.4756 60.3148 35.7469 59.5566 34.8382C57.8528 32.902 56.9486 30.4054 57.023 27.8429C56.9969 25.2247 57.9303 22.6852 59.6516 20.6915C60.4478 19.7712 61.4389 19.0342 62.5551 18.5324C63.6713 18.0306 64.8856 17.7762 66.1123 17.7872C67.2665 17.756 68.4099 18.0148 69.4348 18.5393C70.4597 19.0637 71.3325 19.8366 71.9712 20.7852L72.1296 18.3337H76.7534V37.196H72.1137L71.9554 34.4479C71.2969 35.4607 70.3868 36.2908 69.3115 36.8592C68.2361 37.4276 67.0313 37.7156 65.8114 37.6957ZM67.0148 33.1987C67.9333 33.1987 68.7409 32.9489 69.5009 32.496C70.1977 31.9964 70.7677 31.3406 71.2111 30.5442C71.607 29.7479 71.8129 28.7954 71.8129 27.7336C71.8746 26.8114 71.6925 25.8892 71.2845 25.0572C70.8765 24.2251 70.2565 23.5117 69.4851 22.9868C68.7439 22.5314 67.8881 22.29 67.0148 22.29C66.1416 22.29 65.2858 22.5314 64.5446 22.9868C63.8479 23.4865 63.2778 24.1423 62.8344 24.9386C62.4157 25.8168 62.2097 26.779 62.2327 27.7492C62.1709 28.6714 62.353 29.5936 62.761 30.4257C63.169 31.2577 63.789 31.9711 64.5604 32.496C65.3047 32.9489 66.1123 33.1987 67.0148 33.1987ZM84.6709 13.2433C84.6709 13.7898 84.5759 14.2895 84.3225 14.6955C84.0691 15.0859 83.7208 15.445 83.2616 15.6948C82.8024 15.9446 82.3115 16.0383 81.8047 16.0383C81.298 16.0383 80.7913 15.9446 80.3321 15.6948C79.8978 15.4564 79.5326 15.1124 79.2711 14.6955C79.0259 14.2507 78.9056 13.7493 78.9228 13.2433C78.9228 12.6812 79.0336 12.1816 79.2711 11.7912C79.5245 11.3228 79.8887 11.0417 80.3321 10.7919C80.7913 10.542 81.2822 10.4327 81.8047 10.4327C82.3088 10.4213 82.8072 10.539 83.2513 10.7744C83.6954 11.0097 84.0699 11.3547 84.3383 11.7756C84.5688 12.2308 84.6829 12.7347 84.6709 13.2433ZM79.287 37.1335V18.3024H84.3225V37.1648H79.2711L79.287 37.1335ZM97.7823 23.2366V23.2991C97.5447 23.1898 97.228 23.1429 96.9905 23.0961C96.6738 23.0336 96.4204 23.0336 96.1196 23.0336C94.7103 23.0336 93.6493 23.4396 92.9526 24.2828C92.1925 25.1416 91.8441 26.3439 91.8441 27.8898V37.1492H86.7928V18.2868H91.4324L91.5908 21.1443C92.0975 20.145 92.6992 19.3955 93.5543 18.8333C94.4049 18.2872 95.4062 18.0144 96.4204 18.0526C96.7847 18.0526 97.133 18.0838 97.4339 18.1463C97.5922 18.1931 97.6872 18.1931 97.7823 18.24V23.2366ZM99.8091 37.1335V10.5576H104.845V20.7071C105.557 19.8014 106.365 19.0988 107.378 18.5523C108.983 17.7766 110.805 17.5566 112.552 17.9277C114.299 18.2988 115.868 19.2394 117.006 20.5978C118.713 22.538 119.618 25.0409 119.54 27.6087C119.566 30.2269 118.632 32.7664 116.911 34.7601C116.115 35.6804 115.124 36.4174 114.007 36.9192C112.891 37.421 111.677 37.6754 110.45 37.6644C109.296 37.6956 108.153 37.4368 107.128 36.9123C106.103 36.3879 105.23 35.615 104.591 34.6665L104.433 37.1179L99.8091 37.1648V37.1335ZM109.548 33.1987C110.45 33.1987 111.258 32.9489 112.018 32.496C112.715 31.9964 113.285 31.3406 113.728 30.5442C114.14 29.7479 114.33 28.7954 114.33 27.7336C114.33 26.6874 114.14 25.735 113.728 24.9386C113.312 24.1707 112.728 23.504 112.018 22.9868C111.277 22.5314 110.421 22.29 109.548 22.29C108.674 22.29 107.819 22.5314 107.077 22.9868C106.365 23.4865 105.811 24.1423 105.351 24.9386C104.933 25.8168 104.727 26.779 104.75 27.7492C104.688 28.6714 104.87 29.5936 105.278 30.4257C105.686 31.2577 106.306 31.9711 107.077 32.496C107.822 32.9489 108.629 33.1987 109.548 33.1987ZM121.44 37.1492V18.2868H126.079L126.238 20.7383C126.821 19.7986 127.648 19.0296 128.633 18.5107C129.619 17.9919 130.727 17.7421 131.843 17.7872C133.12 17.7654 134.374 18.1153 135.45 18.7929C136.526 19.4706 137.376 20.4459 137.892 21.5971C138.447 22.7838 138.747 24.2516 138.747 25.8911V37.196H133.696V26.5469C133.696 25.2353 133.395 24.2047 132.793 23.4396C132.192 22.6901 131.368 22.2841 130.323 22.2841C129.563 22.2841 128.898 22.4403 128.312 22.7838C127.758 23.1429 127.299 23.5958 126.95 24.236C126.598 24.8831 126.423 25.6097 126.444 26.3439V37.1492H121.44ZM141.265 37.1492V10.542H146.317V20.6915C147.001 19.7808 147.891 19.0399 148.916 18.5276C149.941 18.0153 151.074 17.7458 152.223 17.7403C153.416 17.7231 154.598 17.971 155.681 18.4657C156.764 18.9604 157.72 19.6891 158.478 20.5978C160.173 22.5379 161.071 25.0332 160.996 27.5931C161.023 30.2115 160.089 32.7515 158.367 34.7445C157.571 35.6648 156.58 36.4018 155.463 36.9036C154.347 37.4054 153.133 37.6598 151.906 37.6488C150.752 37.68 149.609 37.4212 148.584 36.8967C147.559 36.3723 146.686 35.5994 146.047 34.6508L145.905 37.1023L141.265 37.1492ZM151.051 33.1987C151.97 33.1987 152.777 32.9489 153.521 32.496C154.234 31.9964 154.788 31.3406 155.247 30.5442C155.643 29.7479 155.849 28.7954 155.849 27.7336C155.911 26.8114 155.729 25.8892 155.321 25.0572C154.913 24.2251 154.293 23.5117 153.521 22.9868C152.78 22.5314 151.924 22.29 151.051 22.29C150.178 22.29 149.322 22.5314 148.581 22.9868C147.884 23.4865 147.314 24.1423 146.871 24.9386C146.429 25.809 146.222 26.7769 146.269 27.7492C146.207 28.6714 146.389 29.5936 146.797 30.4257C147.205 31.2577 147.825 31.9711 148.597 32.496C149.341 32.9489 150.101 33.1987 151.051 33.1987Z" fill="#FF385C"/>
</svg>
