<svg width="162" height="38" viewBox="0 0 162 38" fill="none" xmlns="http://www.w3.org/2000/svg">
<path d="M57.547 13.4722V15.6188H57.6126C58.385 14.4696 59.6673 13.1161 62.5096 13.1161C64.7208 13.1161 66.4171 14.2416 67.1441 15.9418H67.2097C67.8307 15.0822 68.5425 14.4316 69.3401 13.9709C70.2842 13.4248 71.3343 13.1113 72.6569 13.1113C75.6507 13.1113 78.3011 15.0584 78.3011 19.969V29.2819H73.7373V20.6196C73.7373 18.1311 72.8387 16.6921 70.9708 16.6921C69.6026 16.6921 68.6081 17.5565 68.2295 18.6202C68.0982 18.9859 68.0376 19.4846 68.0376 19.9025V29.2867H63.4739V20.2682C63.4739 18.1548 62.6106 16.6874 60.7679 16.6874C59.2938 16.6874 58.3699 17.7797 57.9913 18.7152C57.8297 19.1142 57.7792 19.5748 57.7792 20.007V29.2819H53.2104V13.4722H57.547ZM101.857 13.4722V16.4547H101.983C102.821 14.1751 104.81 13.1161 106.557 13.1161C106.996 13.1161 107.239 13.1493 107.592 13.2158V17.357C107.173 17.3 106.784 17.243 106.239 17.243C104.26 17.243 102.882 18.3258 102.534 20.0212C102.458 20.3727 102.433 20.7526 102.433 21.1895V29.2867H97.7476V13.4722H101.857ZM113.953 8.23401V13.211H117.911V17.2383H113.953V23.1794C113.953 25.1027 114.473 26.0336 116.018 26.0336C116.745 26.0336 117.28 25.9481 117.744 25.8389L117.805 29.1775C117.184 29.3959 115.861 29.6334 114.518 29.6334C112.938 29.6334 111.621 29.1157 110.818 28.3131C109.899 27.3966 109.475 25.8958 109.475 23.7588V8.23401H113.953ZM50.0299 29.2819H45.4863V8.23401H50.0299V29.2819ZM37.9137 23.6353C37.9137 23.925 37.8884 24.2289 37.8026 24.4901C37.4492 25.5872 36.2426 26.5132 34.7382 26.5132C33.4812 26.5132 32.4816 25.8436 32.4816 24.4236C32.4816 22.2533 35.026 21.6502 37.9187 21.6644V23.6353H37.9137ZM42.4522 19.8503C42.4522 16.2647 40.8266 13.1161 35.3289 13.1161C32.5068 13.1161 30.2653 13.8617 29.0436 14.5265L29.9372 17.4045C31.0529 16.7396 32.835 16.1935 34.5211 16.1935C37.3129 16.1887 37.7673 17.6799 37.7673 18.6345V18.8625C31.6839 18.853 27.8421 20.8333 27.8421 24.87C27.8421 27.3348 29.7958 29.6429 33.1984 29.6429C35.2935 29.6429 37.0403 28.8593 38.0904 27.6008H38.1913C38.1913 27.6008 38.888 30.3315 42.7147 29.2867C42.5128 28.1469 42.4472 26.9359 42.4472 25.4779V19.8503H42.4522ZM5.01814 8.23401C5.48764 10.4613 6.82042 16.9296 6.82042 16.9296C7.3808 19.5891 7.89574 22.3768 8.28447 24.5803H8.35515C8.73378 22.239 9.32949 20.0212 9.96559 17.2763L12.2121 8.23401H17.1848L19.285 17.509C19.8353 20.0877 20.2745 22.0776 20.6228 24.4759H20.6884C21.0671 22.0538 21.5618 19.9832 22.102 17.3332L24.1214 8.23401H28.8921L22.9804 29.2819C19.2143 30.056 17.7705 28.6313 17.2555 26.3708C16.7406 24.1054 15.7309 19.798 15.7309 19.798C15.2109 17.4377 14.807 15.7756 14.5243 13.3535H14.4536C14.0498 15.7518 13.6257 17.433 12.9997 19.7933L10.5209 29.2867C6.67402 30.0085 5.34123 28.94 4.60416 26.0383C3.96806 23.5545 0 8.23876 0 8.23876H5.01814V8.23401ZM90.175 23.6353C90.175 23.925 90.1497 24.2289 90.0639 24.4901C89.7105 25.5872 88.504 26.5132 86.9995 26.5132C85.7425 26.5132 84.7429 25.8436 84.7429 24.4236C84.7429 22.2533 87.2873 21.6502 90.18 21.6644V23.6353H90.175ZM94.7135 19.8503C94.7135 16.2647 93.0879 13.1161 87.5902 13.1161C84.7681 13.1161 82.5266 13.8617 81.3049 14.5265L82.1985 17.4045C83.3142 16.7396 85.0963 16.1935 86.7824 16.1935C89.5692 16.1887 90.0286 17.6799 90.0286 18.6345V18.8625C83.9503 18.853 80.1084 20.8333 80.1084 24.87C80.1084 27.3348 82.0672 29.6429 85.4648 29.6429C87.5549 29.6429 89.3067 28.8593 90.3517 27.6008H90.4577C90.4577 27.6008 91.1544 30.3315 94.9811 29.2867C94.7791 28.1469 94.7135 26.9359 94.7135 25.4779V19.8503Z" fill="#041E42"/>
<path d="M136.33 22.0331C136.778 22.8017 136.747 23.6596 136.269 24.0514L128.007 29.7592C127.146 30.2502 125.858 29.6551 125.128 28.4104C124.393 27.1607 124.524 25.7672 125.385 25.2763L134.533 21.0809C135.107 20.8627 135.882 21.2644 136.33 22.0331ZM147.204 22.0331C147.657 21.2644 148.427 20.8677 149.001 21.076L158.154 25.2713C159.015 25.7623 159.141 27.1557 158.411 28.4054C157.676 29.6502 156.383 30.2403 155.528 29.7543L147.265 24.0464C146.792 23.6596 146.757 22.7967 147.204 22.0331ZM141.765 25.1275C142.665 25.1275 143.405 25.5837 143.506 26.1838L144.396 36.092C144.396 37.0738 143.234 37.8772 141.77 37.8772C140.31 37.8772 139.143 37.0738 139.143 36.092L140.028 26.1838C140.129 25.5837 140.869 25.1275 141.765 25.1275ZM147.265 13.8308L155.528 8.11796C156.383 7.62702 157.676 8.21714 158.411 9.46682C159.141 10.7165 159.015 12.11 158.154 12.6009L149.001 16.8013C148.427 17.0095 147.652 16.6128 147.204 15.8442C146.757 15.0755 146.792 14.2176 147.265 13.8308ZM134.533 16.8013L125.385 12.6009C124.529 12.11 124.398 10.7165 125.128 9.46682C125.858 8.21714 127.151 7.62702 128.007 8.11796L136.269 13.8308C136.747 14.2126 136.778 15.0755 136.33 15.8442C135.882 16.6128 135.107 17.0095 134.533 16.8013ZM140.028 11.6934L139.143 1.78526C139.143 0.803366 140.305 0 141.77 0C143.234 0 144.396 0.803366 144.396 1.78526L143.506 11.6934C143.405 12.2885 142.665 12.7497 141.765 12.7497C140.869 12.7497 140.129 12.2885 140.028 11.6934ZM160.645 29.7196V29.4716H160.872C160.947 29.4716 160.998 29.5212 160.998 29.5956C160.998 29.665 160.947 29.7196 160.872 29.7196H160.645ZM160.459 30.1708C160.459 30.1956 160.479 30.2204 160.51 30.2204H160.605C160.63 30.2204 160.655 30.1956 160.655 30.1708V29.8882H160.811L160.937 30.1857C160.947 30.2056 160.962 30.2204 160.983 30.2204H161.098C161.134 30.2204 161.159 30.1857 161.144 30.151C161.098 30.0618 161.053 29.9675 161.008 29.8733C161.083 29.8485 161.199 29.7741 161.199 29.5956C161.199 29.4072 161.043 29.2981 160.887 29.2981H160.51C160.484 29.2981 160.459 29.3229 160.459 29.3476V30.1708ZM160.052 29.7592C160.052 29.3576 160.384 29.0303 160.791 29.0303C161.199 29.0303 161.531 29.3526 161.531 29.7592C161.531 30.1609 161.204 30.4882 160.791 30.4882C160.379 30.4882 160.052 30.1609 160.052 29.7592ZM159.875 29.7592C159.875 30.2552 160.283 30.6618 160.791 30.6618C161.295 30.6618 161.707 30.2552 161.707 29.7592C161.707 29.2633 161.295 28.8567 160.791 28.8567C160.283 28.8567 159.875 29.2633 159.875 29.7592Z" fill="#FFC124"/>
</svg>
