<svg width="37" height="35" viewBox="0 0 37 35" fill="none" xmlns="http://www.w3.org/2000/svg">
<path d="M7.40625 34.2656C6.96875 33.9323 6.70312 33.4948 6.60938 32.9531C6.51562 32.4115 6.58854 31.7917 6.82812 31.0938L9.9375 21.8438L2 16.1406C1.39583 15.7135 0.96875 15.2552 0.71875 14.7656C0.46875 14.2656 0.4375 13.75 0.625 13.2188C0.802083 12.6979 1.13021 12.3125 1.60938 12.0625C2.09896 11.8021 2.70833 11.6771 3.4375 11.6875L13.1875 11.7656L16.1562 2.45312C16.3854 1.73438 16.6927 1.1875 17.0781 0.8125C17.474 0.427083 17.9479 0.234375 18.5 0.234375C19.0521 0.234375 19.5208 0.427083 19.9062 0.8125C20.3021 1.1875 20.6146 1.73438 20.8438 2.45312L23.7969 11.7656L33.5469 11.6875C34.2865 11.6771 34.8958 11.8021 35.375 12.0625C35.8646 12.3125 36.1979 12.7031 36.375 13.2344C36.5521 13.7656 36.5156 14.276 36.2656 14.7656C36.026 15.2552 35.6042 15.7135 35 16.1406L27.0469 21.8438L30.1719 31.0938C30.4115 31.7917 30.4844 32.4115 30.3906 32.9531C30.2969 33.4948 30.026 33.9323 29.5781 34.2656C29.1302 34.6094 28.6354 34.7344 28.0938 34.6406C27.5521 34.5573 26.9792 34.2969 26.375 33.8594L18.5 28.0625L10.6094 33.8594C10.0156 34.2969 9.44271 34.5573 8.89062 34.6406C8.34896 34.7344 7.85417 34.6094 7.40625 34.2656Z" fill="#F17400"/>
</svg>
